<?xml version="1.0"  encoding="UTF-8"  standalone="no" ?>
<svg
   xmlns:dc="http://purl.org/dc/elements/1.1/"
   xmlns:cc="http://creativecommons.org/ns#"
   xmlns:rdf="http://www.w3.org/1999/02/22-rdf-syntax-ns#"
   xmlns:svg="http://www.w3.org/2000/svg"
   xmlns="http://www.w3.org/2000/svg"
   xmlns:xlink="http://www.w3.org/1999/xlink"
   xmlns:sodipodi="http://sodipodi.sourceforge.net/DTD/sodipodi-0.dtd"
   xmlns:inkscape="http://www.inkscape.org/namespaces/inkscape"
   width="210mm"
   height="297mm"
   viewBox="0 0 210 297"
   version="1.1"
   id="svg8"
   inkscape:version="1.0 (4035a4fb49, 2020-05-01)"
   sodipodi:docname="logoscatterbrain.svg">
  <defs
     id="defs2">
    <linearGradient
       id="linearGradient921"
       inkscape:collect="always">
      <stop
         id="stop917"
         offset="0"
         style="stop-color:#8abb96;stop-opacity:1;" />
      <stop
         id="stop919"
         offset="1"
         style="stop-color:#8abb96;stop-opacity:0;" />
    </linearGradient>
    <inkscape:perspective
       sodipodi:type="inkscape:persp3d"
       inkscape:vp_x="0 : 148.5 : 1"
       inkscape:vp_y="0 : 1000 : 0"
       inkscape:vp_z="210 : 148.5 : 1"
       inkscape:persp3d-origin="105 : 99 : 1"
       id="perspective833" />
    <linearGradient
       gradientUnits="userSpaceOnUse"
       y2="-1.511905"
       x2="211.66666"
       y1="-1.511905"
       x1="211.66666"
       id="linearGradient923"
       xlink:href="#linearGradient921"
       inkscape:collect="always" />
  </defs>
  <sodipodi:namedview
     inkscape:snap-bbox="true"
     id="base"
     pagecolor="#ffffff"
     bordercolor="#666666"
     borderopacity="1.0"
     inkscape:pageopacity="0.0"
     inkscape:pageshadow="2"
     inkscape:zoom="0.7"
     inkscape:cx="505.34101"
     inkscape:cy="403.75054"
     inkscape:document-units="mm"
     inkscape:current-layer="layer1"
     inkscape:document-rotation="0"
     showgrid="false"
     inkscape:window-width="1368"
     inkscape:window-height="850"
     inkscape:window-x="-6"
     inkscape:window-y="-6"
     inkscape:window-maximized="1" />
  <metadata
     id="metadata5">
    <rdf:RDF>
      <cc:Work
         rdf:about="">
        <dc:format>image/svg+xml</dc:format>
        <dc:type
           rdf:resource="http://purl.org/dc/dcmitype/StillImage" />
        <dc:title></dc:title>
      </cc:Work>
    </rdf:RDF>
  </metadata>
  <g
     inkscape:label="Layer 1"
     inkscape:groupmode="layer"
     id="layer1">
    <rect
       style="fill:url(#linearGradient923);fill-opacity:1;stroke-width:0.264583"
       id="rect905"
       width="188.61009"
       height="154.59225"
       x="6.0476189"
       y="47.625"
       ry="4.9136906" />
    <path
       d="m 7.3989656,159.80638 c 1.44284,-0.9978 2.8309804,-2.07136 4.2813504,-3.06022 0.40881,-0.26277 1.28972,-0.84218 1.71153,-1.05763 0.13353,-0.0682 -0.50906,0.30529 -0.36539,0.26238 0.33526,-0.10014 0.63419,-0.29593 0.95388,-0.43815 0.81844,-0.36409 1.08675,-0.46405 1.91918,-0.80035 1.80614,-0.67096 3.64913,-1.22969 5.48393,-1.81422 1.77312,-0.61356 3.53961,-1.24466 5.29856,-1.89774 1.77134,-0.6706 3.62172,-1.10826 5.45484,-1.57436 1.93204,-0.49364 3.89603,-0.8003 5.87834,-0.99292 2.16466,-0.21291 4.32529,-0.46192 6.48905,-0.6829 2.2313,-0.30151 4.47691,-0.46677 6.7175,-0.68115 2.51364,-0.23768 5.04002,-0.2423 7.55915,-0.37504 2.55515,-0.14148 5.10538,-0.3706 7.64424,-0.69031 1.72279,-0.29417 3.45898,-0.24762 5.1955,-0.17221 1.66245,0.0979 3.32151,0.11506 4.98341,0.0165 1.88529,-0.1327 3.77391,-0.15295 5.6507,-0.3838 2.76833,-0.30976 5.46947,-1.02325 8.1347,-1.80946 3.20944,-0.94974 6.1715,-2.52286 9.20373,-3.90574 3.639364,-1.40511 6.997904,-3.35947 10.323994,-5.37613 2.61333,-1.66294 5.30347,-3.20893 7.7215,-5.15648 1.44262,-1.16192 2.36338,-2.0437 3.72315,-3.28881 2.21854,-2.10386 4.26991,-4.39052 6.0464,-6.8817 0.37707,-0.52877 0.76587,-1.05256 1.08587,-1.6177 0.34143,-0.60296 0.59538,-1.25143 0.89307,-1.87714 0.45931,-1.3291 0.97986,-2.60648 1.15707,-4.01632 0.36616,-2.91313 -0.46255,-5.71907 -1.36647,-8.44471 -0.88174,-2.50705 -2.08282,-4.942036 -3.9709,-6.853246 -0.37036,-0.37491 -0.78097,-0.70778 -1.17146,-1.06167 -2.3271,-2.02473 -4.63547,-4.05688 -7.2254,-5.73974 -2.64808,-1.67711 -5.51705,-2.91459 -8.4933,-3.86787 -3.57059,-1.02979 -7.23001,-1.64719 -10.922434,-2.0101 -3.22948,-0.28201 -6.50716,-0.30668 -9.7279,0.11403 -2.26573,0.29596 -4.03306,0.69916 -6.28156,1.15659 -4.94856,1.08332 -9.83765,2.63554 -14.25469,5.17062 -5.04399,2.89489 -5.71768,3.6219 -10.11447,6.98519 -5.74225,4.783396 -11.06455,10.105056 -15.47764,16.154806 -1.04104,1.42711 -2.06225,2.8744 -2.95952,4.39603 -0.94325,1.59959 -1.70179,3.30116 -2.55268,4.95174 -2.41405,5.24569 -4.01311,10.81107 -5.00446,16.49197 -0.31173,1.78639 -0.59505,3.58295 -0.72414,5.39173 -0.29805,4.17613 0.0301,6.00212 0.40648,10.08236 0.40815,1.56108 0.68438,3.16275 1.22446,4.68323 1.6643,4.68553 4.63038,9.13691 8.38528,12.40959 3.82123,3.33047 5.89178,4.03623 10.41497,6.36532 8.67687,3.63665 17.96597,5.51272 27.36851,5.68823 6.55182,0.1223 8.44919,-0.29982 14.93294,-1.01989 5.85327,-1.18085 8.349834,-1.47332 13.975944,-3.43477 7.32092,-2.55233 14.23387,-6.31352 20.69092,-10.57026 2.00628,-1.32262 3.89055,-2.82163 5.83582,-4.23244 7.8782,-6.52494 14.91858,-14.06781 20.93659,-22.34273 4.0663,-5.59127 4.95425,-7.43923 8.44331,-13.38718 4.92141,-8.99417 8.2085,-18.79868 9.25502,-29.023686 0.65654,-6.41479 0.28937,-7.73717 -0.17497,-14.03348 -0.43614,-2.1172 -0.74033,-4.26593 -1.30843,-6.3516 -1.54445,-5.67019 -4.17376,-11.18652 -7.87974,-15.77237 -2.86031,-3.53941 -4.60403,-4.71336 -8.03676,-7.56884 -1.42306,-0.88614 -2.76522,-1.91784 -4.26918,-2.65841 -4.54661,-2.23882 -9.44321,-3.10389 -14.44083,-2.08215 -4.48553,0.91705 -5.81429,2.04138 -9.79319,4.2229 -1.83314,1.30242 -3.78162,2.4561 -5.49943,3.90725 -1.41448,1.19492 -2.65824,2.58633 -3.85745,3.99718 -3.52526,4.1474 -6.29222,8.9959 -8.32895,14.03246 -0.6805,1.68279 -1.19564,3.42782 -1.79346,5.14173 -1.57721,5.19593 -2.61357,10.54266 -3.22728,15.93521 -0.20725,1.821006 -0.40182,3.646866 -0.46627,5.478506 -0.18084,5.13934 0.15546,6.76697 0.66159,11.90771 0.30675,1.87642 0.5251,3.76944 0.92024,5.62925 1.47943,6.96347 4.10573,13.84474 7.83801,19.91586 0.88773,1.44402 1.91529,2.79728 2.87293,4.19592 1.12914,1.2745 2.18865,2.61428 3.38742,3.82351 4.34298,4.38088 9.78209,8.02938 15.78629,9.65746 1.38328,0.37508 2.81917,0.51848 4.22876,0.77772 1.4944,-0.0567 3.00099,0.0288 4.4832,-0.17003 6.45274,-0.86539 13.1219,-4.55836 17.95197,-8.79942 1.12358,-0.98656 2.11217,-2.117 3.16825,-3.1755 0.84112,-1.22865 1.8011,-2.38386 2.52337,-3.68592 2.16459,-3.90222 3.1409,-8.45928 2.90684,-12.90932 -0.22099,-4.20171 -1.05865,-6.35846 -2.17331,-10.43486 -0.74145,-1.87574 -1.38429,-3.79352 -2.22435,-5.62722 -2.07697,-4.53364 -4.62389,-8.81944 -7.40136,-12.95447 -3.07638,-4.580036 -6.71287,-9.319216 -10.34912,-13.466356 -1.85916,-2.12037 -3.86023,-4.11199 -5.79035,-6.16799 -7.55125,-7.36724 -16.10522,-13.78523 -25.89772,-17.86663 -5.9687,-2.48768 -7.49206,-2.53856 -13.697,-3.90117 -4.962454,-0.40642 -7.959854,-1.00607 -12.890144,-0.048 -4.71855,0.91695 -8.80917,2.96653 -12.68732,5.79727 -4.37552,3.19378 -5.30386,5.29506 -8.36564,9.66353 -2.54318,6.13185 -3.55363,7.65395 -4.73027,14.38069 -1.55679,8.89989 -1.25061,18.614046 -0.12441,27.538606 0.41077,3.25518 1.07169,6.47387 1.60754,9.71081 0.8746,3.41531 1.62493,6.86488 2.62382,10.24593 1.01089,3.42165 2.15429,6.80595 3.40154,10.14871 3.48786,9.34779 7.86613,18.44993 14.23362,26.21519 1.80372,2.19967 3.94094,4.10326 5.91141,6.15489 4.86033,3.72713 6.2067,5.65095 12.298264,6.96137 2.2057,0.47449 4.54713,0.84162 6.75731,0.38847 2.73483,-0.56072 5.28949,-1.90087 7.67692,-3.34791 8.09845,-4.90856 9.65515,-7.55611 15.86515,-14.35156 2.00788,-2.90423 4.20712,-5.6851 6.02364,-8.71271 3.45712,-5.76203 6.17124,-11.90785 7.93062,-18.39904 0.78665,-2.90236 1.43231,-5.86638 1.68171,-8.86311 0.62258,-7.48065 -0.39019,-9.00725 -2.22864,-15.98299 -1.40383,-2.12455 -2.4498,-4.53495 -4.21151,-6.37367 -5.83777,-6.09295 -15.1821,-8.8336 -23.34773,-9.29 -3.10687,-0.17365 -6.23318,0.0321 -9.32857,0.35051 -3.00687,0.30927 -5.95898,1.0189 -8.93848,1.52835 -3.073924,1.1269 -6.244814,2.01814 -9.221784,3.3807 -7.39808,3.3861 -13.05113,7.42384 -19.31346,12.70188 -4.96538,4.18494 -10.99034,10.41619 -14.78763,15.74826 -1.91429,2.688 -3.37765,5.67017 -5.06648,8.50526 -1.02641,2.76296 -2.35528,5.43174 -3.07924,8.2889 -1.09426,4.31856 -1.51137,9.88012 0.23871,14.17725 0.82511,2.02596 2.1642,3.8625 3.70042,5.41986 4.2193,4.27738 7.07637,4.51589 12.60611,6.421 7.24164,0.63089 9.34417,1.38324 16.68562,-0.4053 6.6045,-1.60899 13.78667,-5.06177 19.589204,-8.45084 3.73016,-2.17865 7.38945,-4.49818 10.86645,-7.06161 3.2176,-2.37219 6.11971,-5.14492 9.17957,-7.71738 7.50764,-6.99914 14.62275,-14.51136 19.3843,-23.70895 2.21678,-4.282 4.22843,-9.43731 4.24952,-14.38802 0.008,-1.87421 -0.71019,-3.68056 -1.06529,-5.52084 -0.99535,-1.23431 -1.68059,-2.80293 -2.98605,-3.70293 -3.14543,-2.16851 -7.34337,-1.82519 -10.77999,-1.00365 -2.46809,0.59001 -4.85203,1.53228 -7.15904,2.58931 -6.6795,3.06046 -10.93046,6.38612 -17.0975,10.57737 -6.17566,5.30026 -10.504504,8.70542 -16.041314,14.68409 -4.64395,5.01455 -9.02946,10.71321 -12.53563,16.59494 -1.51349,2.53893 -2.90584,5.16341 -4.04711,7.89 -0.94318,2.25335 -1.45567,4.66367 -2.1835,6.9955 0.427,1.82126 0.34175,3.84603 1.28101,5.46377 2.01779,3.47536 6.2778,4.91568 9.96072,5.26731 5.71086,0.54525 10.6231,-0.91022 15.83488,-3.1896 3.047814,-1.33296 5.852444,-3.16431 8.778664,-4.74647 3.20759,-2.29225 6.56479,-4.38843 9.62278,-6.87676 2.68835,-2.18754 5.19639,-4.60146 7.57787,-7.11962 6.05706,-6.40469 11.42373,-13.95242 13.45387,-22.68809 0.47723,-2.05354 0.39535,-4.19795 0.59302,-6.29693 -0.5496,-1.59217 -0.73795,-3.35969 -1.64882,-4.77651 -2.74436,-4.26875 -8.27893,-4.774 -12.71337,-3.56329 -4.55408,1.24337 -6.67975,3.36325 -10.55309,6.12535 -1.15968,1.33715 -2.53403,2.51486 -3.47903,4.01145 -2.11011,3.34176 -3.39052,8.43313 -0.69436,11.89213 1.9873,2.54958 3.93766,2.46881 6.85934,3.19278 1.56512,-0.0644 3.14619,0.0387 4.69538,-0.19323 6.53153,-0.97774 14.734,-4.79369 17.28517,-11.33694 0.4641,-1.19032 0.39627,-2.52428 0.59441,-3.78643 -0.59613,-1.05836 -0.87773,-2.37123 -1.78838,-3.1751 -2.5823,-2.2795 -7.25707,-3.02272 -10.38466,-3.28762 -4.91577,-0.41637 -9.94896,0.0539 -14.77949,0.94886 -2.54817,0.47209 -5.03756,1.21951 -7.55633,1.82926 -2.33997,0.8426 -4.74267,1.52798 -7.019894,2.52781 -3.98673,1.75038 -8.95578,4.7807 -12.23574,7.60217 -2.33258,2.00651 -4.02856,4.15664 -4.63569,7.19056 -0.18798,0.93938 0.048,1.9154 0.0721,2.87311 0.5013,0.65961 0.8145,1.51935 1.50389,1.97884 1.9543,1.30257 4.69514,0.92321 6.67441,0.0473 3.98102,-1.76184 8.36823,-5.03256 11.310014,-8.25293 1.65589,-1.8127 2.95736,-3.91989 4.43604,-5.87983 1.07472,-2.19131 2.38275,-4.28288 3.22417,-6.57392 2.09835,-5.71351 2.88155,-13.12517 -0.40216,-18.62949 -2.67303,-4.48067 -5.46028,-5.2934 -9.805244,-7.774296 -2.23788,-0.63796 -4.42428,-1.49683 -6.71365,-1.91387 -4.89878,-0.89238 -9.50603,-0.82208 -14.37061,0.26985 -2.29088,0.51421 -4.60972,1.12925 -6.67749,2.24138 -2.47166,1.329356 -4.79981,3.003976 -6.77748,4.995226 -1.62295,1.63409 -2.57936,3.81624 -3.86903,5.72436 -0.1274,2.71816 -0.70675,5.45277 -0.3822,8.15449 0.77357,6.4396 4.04482,13.54797 7.13809,19.07239 3.59295,6.41683 8.99674,13.7734 13.51023,19.554 2.26336,2.89877 4.6692,5.6834 7.0038,8.5251 4.38371,4.91922 7.37309,8.44759 11.96305,12.99974 1.396234,1.38473 2.806184,2.76392 4.331334,4.00523 1.20777,0.983 3.4576,3.30714 5.3166,1.50322 1.14542,-1.11149 1.72271,-2.68736 2.58407,-4.03104 0.23376,-1.86913 0.5637,-3.72874 0.70128,-5.60741 0.41115,-5.61444 0.27324,-12.2423 0.15418,-17.76737 -0.16915,-7.84917 -0.40279,-14.63512 -1.10441,-22.48562 -0.34335,-3.84177 -0.86602,-7.6654 -1.29903,-11.4981 -1.45673,-7.43181 -1.65887,-12.06988 -5.42841,-18.62484 -2.0181,-3.50933 -5.157764,-7.090246 -9.535434,-7.566506 -5.05312,-0.54974 -7.642,2.95328 -11.20515,5.769146 -1.21659,2.08505 -2.70896,4.03201 -3.64975,6.25517 -1.037,2.45048 -1.83248,5.03244 -2.23969,7.66196 -1.22556,7.91404 0.23159,17.05938 4.48222,23.92305 1.23286,1.99075 3.02268,3.57708 4.53401,5.36561 1.94843,0.95491 3.7497,2.30193 5.84528,2.86474 6.97069,1.87212 14.326304,-1.38822 19.414864,-6.02717 4.29652,-3.91689 5.59529,-7.90685 8.04718,-12.99832 0.67532,-2.48305 1.57146,-4.91636 2.02597,-7.44914 0.79347,-4.42167 1.06425,-8.95145 -0.68609,-13.22052 -1.32004,-3.21955 -3.75031,-5.79585 -7.35015,-6.32135 -1.76834,-0.25814 -3.55191,0.39829 -5.32786,0.59743 -5.92958,3.29402 -7.6733,3.68214 -12.579954,9.43777 -1.99223,2.33694 -3.56193,5.01817 -5.05763,7.70017 -2.8408,5.09393 -5.36865,11.44067 -6.84091,17.10348 -0.6294,2.42087 -0.88777,4.92329 -1.33166,7.38494 0.27563,1.71959 0.0589,3.59574 0.82689,5.15879 1.54673,3.14782 4.89242,3.08893 7.76183,2.50638 2.14254,-0.43499 4.18783,-1.29589 6.18024,-2.1959 5.228214,-2.36166 10.588164,-6.04475 15.355564,-9.06884 4.46662,-3.26799 7.70237,-5.38565 11.64941,-9.13621 1.05315,-1.00071 2.13043,-2.02096 2.90109,-3.25248 1.34368,-2.14719 -0.16324,-2.4975 -2.08671,-2.36321 -1.62489,0.11345 -3.19377,0.64216 -4.79066,0.96323 -7.68463,2.22936 -15.52096,4.48062 -23.586004,4.7272 -4.83254,0.14774 -9.8491,-0.30058 -14.20053,-2.66156 -1.78562,-0.96883 -3.14733,-2.56956 -4.72099,-3.85434 -2.71993,-4.06459 -4.10085,-5.11349 -4.73915,-10.16731 -0.57709,-4.56923 0.3531,-8.49937 1.94958,-12.7574 0.76841,-2.04942 1.6383,-4.088836 2.82793,-5.926056 1.16223,-1.79492 2.7782,-3.25143 4.16729,-4.87714 1.89827,-1.0889 3.64028,-2.51299 5.69479,-3.2667 1.72069,-0.63124 3.60658,-0.7316 5.4374,-0.81717 2.39008,-0.11171 4.8076,-0.12301 7.174444,0.22771 4.54429,0.67339 9.89095,2.61072 13.65977,5.28628 2.04173,1.44947 3.65207,3.42652 5.47811,5.13978 1.39954,1.966486 3.04546,3.779096 4.19862,5.899486 2.1493,3.95207 3.66286,9.233 3.50821,13.7682 -0.10019,2.93832 -0.77176,5.83913 -1.44677,8.70062 -0.88362,3.74578 -4.33902,13.81092 -5.58503,17.53688 -0.50582,1.69944 -3.23158,9.73521 -2.97726,12.36483 0.0746,0.77135 0.74106,1.69696 1.51301,1.76515 1.17276,0.10358 2.30149,-0.66882 3.26669,-1.34297 5.36426,-3.74679 6.09008,-5.58998 9.98826,-10.78418 1.41253,-2.43399 3.00792,-4.77066 4.23757,-7.30196 2.46241,-5.06895 4.53018,-11.15655 5.47146,-16.7317 0.70333,-4.16579 1.13476,-9.82546 -0.56936,-13.9561 -0.65583,-1.58967 -2.07094,-2.74588 -3.10641,-4.11882 -1.62954,-0.46239 -3.19521,-1.42683 -4.88862,-1.38715 -4.95844,0.1162 -11.24606,4.04069 -14.6686,6.77407 -5.36253,4.28272 -10.78378,11.33285 -14.47003,16.95727 -2.18055,3.32705 -3.97937,6.88919 -5.969044,10.33379 -3.27925,7.52957 -5.71992,11.53583 -6.75398,19.63724 -0.51402,4.02715 -0.51635,9.36979 2.71314,12.59052 3.43841,3.42907 7.322114,2.36192 11.585894,2.30251 2.60126,-0.69949 5.26262,-1.20498 7.80378,-2.09848 6.16773,-2.16863 11.85019,-5.26915 17.28279,-8.88768 4.05449,-2.7006 8.76259,-6.5873 11.87722,-10.44027 1.217,-1.5055 2.06273,-3.27653 3.09409,-4.91479 0.28304,-1.39084 1.20476,-2.79845 0.84913,-4.17252 -0.81459,-3.14737 -5.5909,-3.47981 -7.72983,-3.56834 -5.00636,-0.20723 -8.66691,0.78386 -13.33055,2.70932 -2.41576,0.99739 -4.66156,2.36482 -6.99234,3.54722 -5.72233,3.7081 -11.83138,7.51154 -14.77701,13.98023 -0.57393,1.26038 -1.23185,2.62883 -1.09731,4.00718 0.3145,3.22202 3.51989,4.78423 5.66456,6.40485 8.12871,4.36391 17.49676,6.23359 25.06132,11.67936 0.67481,0.4858 1.23978,1.10835 1.85966,1.66252 0.20281,0.22307 0.39626,0.8834 0.60843,0.66921 1.86331,-1.88112 0.39371,-3.68593 -0.33419,-5.65177 -0.93958,-2.53752 -2.71469,-7.32401 -3.99173,-9.63708 -0.85512,-1.54885 -1.97533,-2.93578 -2.96299,-4.40367 -1.25015,-0.86556 -2.33562,-2.0396 -3.75045,-2.59668 -4.34924,-1.71247 -9.53752,0.70702 -12.32594,4.05346 -2.3901,2.86841 -2.54202,6.62769 -3.15351,10.06349 0.20569,2.09355 0.18117,4.22268 0.61707,6.28065 0.76214,3.59829 2.5943,8.16106 5.07976,10.98566 1.23438,1.40281 2.75717,2.57454 4.38453,3.49283 4.22378,2.38345 6.09222,1.95943 10.7705,2.24396 2.02968,-0.74627 4.18044,-1.22206 6.08904,-2.23882 6.48833,-3.45649 11.99124,-8.76028 15.41397,-15.2918 2.39061,-4.56196 2.30495,-6.12268 3.1572,-10.96437 -0.36293,-2.57201 -0.16837,-5.055 -2.21189,-7.01855 -0.55994,-0.53804 -1.40486,-1.01682 -2.16529,-0.85945 -2.61955,0.54212 -4.14411,2.51811 -5.06197,4.78851 -0.45741,1.13147 -0.60693,2.36419 -0.9104,3.54629 0.14333,1.23437 0.0981,2.50558 0.42998,3.70312 0.61597,2.22293 2.51134,5.332 5.20236,5.39422 1.94282,0.0449 3.21625,-2.02078 4.31615,-3.11836 1.15537,-2.79558 1.27325,-5.77607 1.37327,-8.75169 0.0655,-1.94894 -0.0202,-3.85797 0.36951,-5.78382 0.15292,-0.7558 0.46624,-1.47005 0.69937,-2.20508 0.61217,-0.91571 1.24015,-2.30244 2.51157,-2.58044 0.22774,-0.0498 0.22827,0.43976 0.43489,0.54771 0.51642,0.26981 1.1781,0.21968 1.66019,0.54689 1.26753,0.86031 1.52489,2.0931 2.06774,3.41284 0.44855,2.56983 0.45726,2.04563 0.51678,4.61901 0.016,0.69053 -0.0759,1.38474 -0.008,2.07212 0.0826,0.83844 0.4383,2.075 1.02992,1.8558 0.8391,-0.31089 1.4633,-1.03039 2.19495,-1.54559 0.28711,-0.5464 0.64042,-1.06285 0.86134,-1.6392 0.65991,-1.72157 1.10404,-4.05799 1.33429,-5.84107 0.50426,-3.90504 0.29811,-7.73827 0.0596,-11.65066 -0.3108,-3.41257 -0.98505,-6.77801 -0.67433,-10.21826 0.14426,-1.59717 0.45558,-3.33776 1.29195,-4.74934 0.36775,-0.62066 0.92671,-1.10591 1.39006,-1.65887 0.54061,-0.34546 1.00988,-0.8437 1.62183,-1.0364 0.16027,-0.0505 0.10029,0.32752 0.20012,0.46268 0.26737,0.36197 0.69131,0.61101 0.89088,1.01434 1.01584,2.05305 -0.0666,1.59911 1.02488,3.75287 0.27899,0.55049 0.79133,0.94726 1.18699,1.42089 0.60796,0.20057 1.18416,0.57694 1.82387,0.60171 1.9741,0.0765 4.12098,-0.98873 5.77275,-1.83007 2.1069,-1.07316 5.95557,-3.55665 7.74526,-4.67576 0,0 -1.36583,0.53179 -1.36583,0.53179 v 0 c -2.06846,1.41296 -2.74699,1.94664 -5.22766,3.23079 -1.59765,0.82704 -3.76908,1.92657 -5.69383,1.90519 -0.61842,-0.007 -1.18515,-0.35411 -1.77772,-0.53116 -0.38579,-0.45441 -0.88828,-0.83134 -1.15737,-1.36324 -0.37952,-0.75021 -0.8504,-4.90431 -2.02912,-4.95573 -0.98122,-0.0428 -1.89047,0.56013 -2.77977,0.97698 -0.58263,0.2731 -1.06804,0.71797 -1.60205,1.07696 -0.45656,0.56674 -1.00821,1.06857 -1.36967,1.70022 -0.81873,1.43076 -1.12417,3.18507 -1.2612,4.79228 -0.29354,3.44285 0.38103,6.80994 0.68916,10.2249 0.23648,3.90412 0.43628,7.72738 -0.0818,11.62271 -0.23686,1.78079 -0.6856,4.09522 -1.37025,5.80604 -0.22661,0.56627 -0.59069,1.06732 -0.88603,1.60098 0.15108,0.0543 0.5552,0.28681 0.45324,0.16282 -0.94939,-1.1545 -0.71577,0.86525 -0.96966,-1.7192 -0.14264,-1.45198 0.19922,-2.92815 -0.11621,-4.37535 -0.0921,-0.79602 -0.28068,-1.57789 -0.42102,-2.36683 -0.56749,-1.37291 -0.83063,-2.61192 -2.1301,-3.52305 -1.61282,-1.13083 -2.99792,-0.4486 -4.71642,0.28714 -0.52819,0.22613 -1.0097,0.58402 -1.39968,1.00597 -0.44672,0.48333 -0.71073,1.10795 -1.0661,1.66192 -0.22735,0.7429 -0.53281,1.46625 -0.68205,2.22869 -0.37872,1.93473 -0.29317,3.8332 -0.3616,5.79011 -0.10339,2.95659 -0.22777,5.91581 -1.41902,8.67867 -0.0144,0.35696 0.21199,0.8208 -0.0431,1.07088 -0.96576,0.9467 -2.58056,0.68088 -3.57596,0.0551 -1.58534,-0.99659 -2.75831,-2.92556 -3.23785,-4.67276 -0.32444,-1.1821 -0.27011,-2.43671 -0.40516,-3.65507 0.9194,-3.45871 0.5482,-3.42866 2.61182,-6.22376 0.20487,-0.27749 0.46027,-0.66423 0.80491,-0.65028 3.85715,0.15605 4.03014,5.01451 4.30829,7.68399 -0.31182,1.75316 -0.43869,3.5495 -0.93546,5.25948 -1.88405,6.48531 -5.71747,11.7175 -10.71404,16.17864 -1.38617,1.23763 -2.85047,2.43102 -4.49265,3.30076 -1.90304,1.00789 -4.02979,1.52002 -6.04468,2.28004 -4.64915,-0.25564 -6.51468,0.17775 -10.72107,-2.17055 -1.61831,-0.90345 -3.13449,-2.0595 -4.36183,-3.44832 -2.47812,-2.80418 -4.30204,-7.34568 -5.05237,-10.92554 -0.42921,-2.04778 -0.39486,-4.16588 -0.5923,-6.24882 0.90598,-4.93843 0.54287,-5.81781 3.21032,-9.97984 0.49916,-0.77884 1.1168,-1.55122 1.92768,-1.99646 2.16971,-1.19136 5.45566,-1.6263 7.81625,-0.72484 1.40614,0.53698 2.48654,1.69688 3.72981,2.54532 3.43571,5.09822 2.7898,3.59118 5.16982,9.37331 0.62977,1.52999 1.18277,3.09062 1.74941,4.6451 0.67009,1.83826 0.44479,4.0975 2.90084,4.16251 0.30736,0.008 -0.42168,-0.44757 -0.63252,-0.67136 -0.62977,-0.55767 -1.20545,-1.18317 -1.88931,-1.67301 -7.57562,-5.42638 -16.92494,-7.31667 -25.06137,-11.66437 -2.07438,-1.5577 -5.28425,-3.11736 -5.57373,-6.25623 -0.12594,-1.3656 0.52888,-2.71806 1.10252,-3.96372 2.57463,-5.59086 7.48888,-9.06872 12.34655,-12.50979 2.32485,-1.18733 4.5649,-2.55788 6.97455,-3.562 4.69018,-1.95442 8.23675,-2.92007 13.26712,-2.74853 1.97721,0.0674 6.82292,0.32698 7.6022,3.3732 0.34736,1.35783 -0.56922,2.74471 -0.85384,4.11708 -1.02964,1.62656 -1.87544,3.38528 -3.08893,4.87971 -3.23482,3.98373 -7.68054,7.541 -11.86996,10.39757 -4.62452,3.15325 -9.57397,5.65115 -14.85469,7.52346 -2.52982,0.89696 -5.1795,1.41099 -7.76925,2.11648 -4.17132,0.0877 -8.091334,1.1705 -11.488474,-2.17517 -3.22195,-3.17313 -3.21594,-8.49781 -2.70899,-12.47826 1.02914,-8.08058 3.47038,-12.08057 6.74511,-19.58973 1.992404,-3.44011 3.792584,-6.99898 5.977204,-10.32034 4.11802,-6.26076 8.75929,-12.09079 14.52778,-16.92457 3.07724,-2.57863 7.9642,-5.29491 12.15799,-5.44384 1.66959,-0.0593 3.22568,0.8713 4.83852,1.30696 1.02886,1.35114 2.43609,2.48467 3.08659,4.05343 1.70259,4.10603 1.26875,9.74891 0.56663,13.88856 -0.94639,5.57983 -3.01391,11.62866 -5.49028,16.69698 -1.23526,2.52817 -2.83623,4.86063 -4.25435,7.29095 -0.6776,0.89529 -5.67379,7.8598 -7.5322,9.31021 -0.74315,0.58 -4.31384,3.12166 -4.63079,-0.14671 -0.16806,-1.73299 0.41937,-3.46451 0.82416,-5.15792 0.57916,-2.42294 1.41446,-4.77741 2.12169,-7.16611 1.24697,-3.73723 4.69583,-13.80453 5.57735,-17.5578 0.67564,-2.87666 1.3485,-5.79281 1.4456,-8.74615 0.14965,-4.55151 -1.38404,-9.86499 -3.54252,-13.82927 -1.15871,-2.12811 -2.81068,-3.947896 -4.21602,-5.921846 -1.83254,-1.72454 -3.44842,-3.71313 -5.49761,-5.17363 -5.39877,-3.84781 -14.2492,-6.45028 -20.886504,-5.59947 -6.73442,0.86325 -8.18011,2.3526 -13.5892,5.50845 -1.38354,1.63687 -2.99326,3.1067 -4.1506,4.9106 -1.1844,1.84607 -2.05196,3.891096 -2.81554,5.947236 -1.59223,4.28742 -2.51425,8.24042 -1.92427,12.8345 0.65368,5.09008 2.0433,6.14539 4.78685,10.23947 1.58522,1.29755 2.95683,2.91244 4.75565,3.89264 4.36935,2.38091 9.39717,2.83983 14.25541,2.69943 8.051914,-0.23269 15.886424,-2.45626 23.556684,-4.68919 1.57854,-0.32912 3.13171,-0.82116 4.7356,-0.98737 0.76294,-0.0791 1.76054,-0.2987 2.28637,0.25971 0.42188,0.44802 -7.9e-4,1.29729 -0.33163,1.81614 -0.77511,1.21533 -1.83659,2.2317 -2.88256,3.22354 -3.95788,3.75305 -7.15307,5.83667 -11.63477,9.10995 -4.73207,3.10659 -7.68262,5.28767 -12.914794,7.67678 -1.97822,0.9033 -4.00832,1.76397 -6.13449,2.2208 -2.7783,0.59695 -6.11901,0.76676 -7.65659,-2.32825 -0.76672,-1.54334 -0.55318,-3.40192 -0.82977,-5.10288 0.44154,-2.45319 0.69674,-4.94735 1.32461,-7.35959 1.47166,-5.65404 4.0022,-11.98965 6.85292,-17.06824 1.81592,-3.23509 6.1702,-9.84378 9.490174,-12.48142 1.71104,-1.35939 3.80317,-2.15369 5.70475,-3.23054 1.75899,-0.21937 3.52002,-0.89325 5.27697,-0.65811 3.57322,0.47821 5.9841,3.00928 7.29526,6.19655 1.74444,4.24055 1.46723,8.76126 0.67212,13.15168 -0.45731,2.52517 -1.35695,4.94986 -2.03542,7.42479 -2.88889,5.94825 -3.36191,8.21638 -8.08718,12.93518 -4.27081,4.26498 -10.99867,6.25617 -16.888914,4.71582 -2.08406,-0.54501 -3.87932,-1.8741 -5.81898,-2.81115 -1.50735,-1.77548 -3.2931,-3.34802 -4.52205,-5.32643 -4.24677,-6.83667 -5.6852,-15.94848 -4.43818,-23.83289 0.41463,-2.6215 1.21585,-5.19504 2.26238,-7.63409 0.94946,-2.21283 2.45353,-4.14398 3.6803,-6.21598 1.15657,-1.0973 2.04987,-2.566806 3.46971,-3.291906 3.58053,-1.82857 7.09856,-1.51031 10.28624,0.98656 1.817864,1.423896 3.270984,3.329136 4.427874,5.327576 3.77807,6.52632 3.98053,11.16555 5.43875,18.57511 0.43244,3.83058 0.95623,7.65195 1.29731,11.49174 0.68099,7.66632 0.9325,14.80969 1.08377,22.48765 0.10647,5.40422 0.22169,12.25259 -0.21144,17.77421 -0.14684,1.87207 -0.49377,3.72305 -0.74066,5.58457 -0.025,0.83601 0.39609,1.81696 -0.075,2.50802 -1.49563,2.19378 -4.54818,-0.77561 -5.26719,-1.35359 -1.5322,-1.23167 -2.94712,-2.60538 -4.3478,-3.98477 -4.617214,-4.54705 -7.585024,-8.04508 -11.989784,-12.97107 -2.33645,-2.83802 -4.74546,-5.61783 -7.00935,-8.51406 -4.53104,-5.79661 -9.88842,-13.09544 -13.48523,-19.53752 -3.07613,-5.5095 -6.33176,-12.6027 -7.07701,-19.02669 -0.31121,-2.68264 0.28589,-5.39369 0.42883,-8.09053 2.56076,-3.74536 4.06515,-7.06286 8.21182,-9.2729 2.07004,-1.103256 4.37544,-1.743706 6.66223,-2.266106 4.85323,-1.10871 9.44098,-1.1914 14.33447,-0.31396 2.2808,0.40896 4.46013,1.25872 6.69019,1.88808 4.308214,2.445566 7.095844,3.253426 9.745324,7.689436 3.26746,5.4707 2.46616,12.84995 0.36682,18.52086 -0.84526,2.28327 -2.1564,4.3659 -3.2346,6.54885 -4.28604,5.63708 -4.04339,6.10683 -9.551564,10.37171 -1.15525,0.8945 -2.37219,1.75593 -3.72218,2.31473 -1.98074,0.81989 -4.58319,1.35426 -6.56635,0.079 -0.67116,-0.43158 -0.97535,-1.26315 -1.46302,-1.89473 -0.0186,-0.93878 -0.24645,-1.89692 -0.0558,-2.81633 0.66484,-3.20643 2.27196,-4.84522 4.64091,-7.10482 4.66932,-4.45379 10.76015,-6.79878 16.792924,-8.73867 2.51541,-0.61368 5.00121,-1.36484 7.54623,-1.84104 4.82801,-0.90339 9.8244,-1.37671 14.7389,-0.97307 3.05436,0.25086 7.74287,0.97533 10.28963,3.19623 0.89073,0.77676 1.16287,2.05787 1.74431,3.0868 -0.20367,1.24333 -0.14453,2.55963 -0.61099,3.72999 -0.69327,1.73945 -3.29033,5.34086 -5.02471,6.46122 -2.38563,1.54103 -6.96388,2.99281 -9.75439,3.42726 -1.53839,0.2395 -3.11031,0.14838 -4.66547,0.22258 -2.86212,-0.68197 -4.82574,-0.59205 -6.78182,-3.08097 -2.68086,-3.41114 -1.34781,-8.46069 0.74709,-11.73595 0.95088,-1.48664 2.32554,-2.65499 3.48831,-3.98249 1.05295,-0.86258 1.98502,-1.89863 3.15885,-2.58772 4.05587,-2.38099 9.68223,-4.01298 14.17995,-1.66501 1.30656,0.68207 2.51371,1.68902 3.31496,2.92608 0.90422,1.39601 1.08935,3.14311 1.63402,4.71467 -0.1975,2.086 -0.11635,4.21748 -0.5925,6.25799 -2.81151,12.0487 -11.88705,21.94972 -21.03458,29.71742 -2.31186,1.96313 -4.83507,3.66285 -7.2526,5.49428 -2.91793,1.58603 -5.71471,3.41877 -8.75379,4.75808 -5.194164,2.28903 -10.060684,3.74936 -15.758224,3.23665 -3.62544,-0.32625 -7.87312,-1.71419 -9.87402,-5.13884 -0.93035,-1.59236 -0.84363,-3.59067 -1.26545,-5.386 0.72553,-2.32188 1.23633,-4.72211 2.1766,-6.96563 1.13969,-2.71935 2.5292,-5.33706 4.04055,-7.86878 3.51385,-5.8862 7.88409,-11.54898 12.53836,-16.56549 5.58622,-6.02099 9.826054,-9.33357 16.060854,-14.66704 2.29387,-1.63651 4.49334,-3.41413 6.88161,-4.90951 4.30348,-2.69456 9.88522,-5.65635 14.92462,-6.89101 3.37031,-0.82572 7.56963,-1.21956 10.68669,0.89417 1.29351,0.87715 1.97355,2.42392 2.96032,3.63588 0.35222,1.82278 1.06603,3.61188 1.05664,5.46836 -0.0249,4.92575 -2.03774,10.06908 -4.24674,14.326 -4.76218,9.17708 -11.87335,16.67198 -19.37122,23.65529 -3.06328,2.56812 -6.00297,5.29132 -9.18983,7.70437 -5.50421,4.16771 -12.10949,8.05688 -18.428354,10.79672 -6.30267,2.73282 -11.44328,4.31399 -18.27862,4.49832 -2.66854,0.072 -5.32011,-0.4489 -7.98017,-0.67335 -5.49842,-1.87756 -8.34943,-2.10869 -12.54844,-6.34929 -1.52512,-1.54023 -2.8544,-3.35914 -3.67233,-5.36646 -1.74107,-4.27287 -1.32043,-9.80568 -0.22851,-14.09768 0.72447,-2.8477 2.05199,-5.50696 3.07798,-8.26043 1.68939,-2.82736 3.15434,-5.80153 5.06816,-8.48206 4.15537,-5.82007 9.44844,-11.0172 14.78933,-15.71708 2.50734,-2.2064 5.02358,-4.43265 7.79949,-6.28988 7.31228,-4.89229 10.28203,-5.46548 18.340594,-8.43986 2.97667,-0.51502 5.92563,-1.22967 8.93002,-1.54505 3.0886,-0.32421 6.20827,-0.53616 9.30936,-0.36957 8.12608,0.43651 17.45204,3.14208 23.27035,9.19978 1.75334,1.82548 2.79368,4.22156 4.19052,6.33235 1.83373,6.95647 2.83961,8.45851 2.21323,15.9203 -0.25093,2.98919 -0.89559,5.94578 -1.68246,8.84044 -1.76077,6.47741 -4.47824,12.61477 -7.93678,18.36081 -1.81937,3.02271 -4.02198,5.7975 -6.03296,8.69625 -2.348,2.55717 -4.53936,5.26756 -7.04399,7.67153 -3.81012,3.65699 -8.69655,7.52337 -14.05944,8.65824 -2.19873,0.46529 -4.53367,0.11022 -6.7331,-0.3518 -6.082244,-1.27766 -7.422414,-3.19221 -12.281624,-6.89748 -1.96994,-2.04378 -4.10685,-3.93886 -5.90983,-6.13134 -6.36936,-7.74537 -10.74466,-16.83788 -14.22708,-26.17206 -1.24601,-3.33977 -2.38775,-6.7213 -3.39534,-10.14056 -0.99563,-3.37871 -1.74019,-6.82639 -2.61029,-10.23958 -0.53331,-3.23417 -1.19202,-6.45014 -1.59994,-9.7025 -1.1236,-8.95857 -1.41928,-18.575516 0.16406,-27.505766 1.19435,-6.73627 2.19588,-8.21038 4.76721,-14.34058 3.42258,-4.84153 3.66685,-5.95974 8.39103,-9.60833 4.72565,-3.64972 10.5949,-4.94737 16.45859,-4.94331 2.20921,0.002 4.40459,0.34916 6.606884,0.52374 6.19935,1.34759 7.71995,1.39401 13.68423,3.86922 9.78582,4.06117 18.33362,10.46467 25.87926,17.81712 1.92881,2.05307 3.92889,4.04143 5.78643,6.15921 3.63308,4.14206 7.26486,8.87607 10.33344,13.454336 2.76997,4.13276 5.30104,8.41281 7.36849,12.94352 0.83526,1.83042 1.47446,3.7441 2.21169,5.61615 1.1077,4.0794 1.93265,6.19923 2.14121,10.40076 0.21998,4.43158 -0.76806,8.96092 -2.94219,12.83611 -0.72618,1.29433 -1.68905,2.44082 -2.53358,3.66123 -3.09831,3.0826 -3.21254,3.46794 -6.87275,5.98956 -3.43613,2.36725 -7.59329,3.98845 -11.7254,4.56629 -1.47462,0.20621 -2.97509,0.12991 -4.46264,0.19486 -1.40549,-0.25237 -2.83692,-0.38843 -4.21646,-0.75713 -5.98939,-1.60074 -11.42225,-5.2304 -15.75399,-9.59154 -1.19575,-1.20388 -2.25197,-2.53874 -3.37795,-3.80811 -0.95575,-1.3943 -1.98162,-2.74304 -2.86727,-4.1829 -3.72557,-6.05694 -6.34386,-12.92183 -7.81934,-19.86983 -0.39425,-1.85652 -0.61321,-3.74597 -0.91982,-5.61896 -0.50246,-5.16358 -0.83151,-6.72698 -0.64346,-11.88738 0.0667,-1.82915 0.26092,-3.652546 0.46961,-5.470986 0.61794,-5.38461 1.65937,-10.72334 3.24033,-15.9103 0.6003,-1.70983 1.11844,-3.45076 1.80088,-5.12949 3.29057,-8.09444 8.24521,-15.1379 15.24369,-20.42896 3.96105,-2.19735 5.28206,-3.32535 9.75252,-4.26689 4.97557,-1.04794 9.8479,-0.21391 14.38745,2.00483 1.50129,0.73377 2.84126,1.75967 4.26188,2.6395 3.4356,2.84755 5.15825,3.99776 8.01939,7.53272 3.69766,4.56849 6.32091,10.06524 7.86026,15.71756 0.56636,2.0796 0.86889,4.22222 1.30334,6.33332 0.4617,6.28269 0.8281,7.59879 0.1684,14.000036 -1.05235,10.21109 -4.35422,19.99505 -9.27373,28.9739 -3.50645,5.96519 -4.36688,7.76421 -8.45338,13.37094 -6.02461,8.26585 -13.06635,15.80251 -20.95699,22.30815 -4.11541,2.97558 -6.46848,4.88183 -10.78769,7.30266 -4.27676,2.39704 -8.65391,4.48157 -13.28581,6.1055 -5.62118,1.97076 -8.1151,2.26693 -13.964584,3.45718 -6.47385,0.72838 -8.37559,1.15384 -14.91819,1.03984 -7.12431,-0.12414 -14.25577,-1.20886 -21.06566,-3.32837 -2.12425,-0.66115 -4.1723,-1.54601 -6.25845,-2.31902 -4.51075,-2.31729 -6.56771,-3.01398 -10.37708,-6.33089 -3.73861,-3.2553 -6.6924,-7.6843 -8.34513,-12.34929 -0.53627,-1.51368 -0.80883,-3.10822 -1.21324,-4.66234 -0.377,-4.09099 -0.70122,-5.8612 -0.39835,-10.0498 0.13051,-1.80492 0.41322,-3.59774 0.72576,-5.38018 0.99448,-5.67169 2.60215,-11.22477 5.02256,-16.45793 0.85417,-1.64592 1.61709,-3.3425 2.5625,-4.93776 0.89946,-1.51774 1.92107,-2.96191 2.96289,-4.38571 4.41845,-6.03846 9.74223,-11.35056 15.4886,-16.120116 1.75102,-1.33347 5.44858,-4.28444 7.63378,-5.54003 4.40965,-2.53373 9.27755,-4.11155 14.22176,-5.19252 2.22561,-0.45543 4.02064,-0.86537 6.26397,-1.16361 3.21372,-0.42725 6.48583,-0.41455 9.70975,-0.1355 3.68381,0.35755 7.332614,0.9719 10.897004,1.98949 2.96807,0.94198 5.83027,2.1673 8.47134,3.8347 2.5874,1.67315 4.89013,3.70099 7.21255,5.71958 0.38686,0.34928 0.79359,0.67774 1.1606,1.04782 1.8779,1.8936 3.07233,4.309416 3.94805,6.797856 0.89596,2.70597 1.7101,5.48165 1.32912,8.37212 -0.18686,1.41767 -0.70065,2.65116 -1.17071,3.98672 -0.30107,0.61939 -0.56042,1.26086 -0.90321,1.85817 -0.32221,0.56144 -0.70956,1.08335 -1.08681,1.60938 -1.78031,2.48238 -3.83467,4.75903 -6.05371,6.85517 -1.37064,1.25032 -2.27105,2.11174 -3.72766,3.27572 -2.42522,1.93798 -5.11818,3.48214 -7.73187,5.14414 -2.49041,1.50453 -5.04385,2.8689 -7.76895,3.91301 -3.032824,1.37691 -5.987114,2.96132 -9.190894,3.92201 -2.65719,0.79142 -5.3522,1.50993 -8.11363,1.82399 -1.87389,0.24284 -3.76004,0.26008 -5.64384,0.39082 -1.65841,0.10345 -3.31344,0.0972 -4.97288,-0.005 -1.74194,-0.0772 -3.48468,-0.14252 -5.21355,0.15381 -2.53694,0.32393 -5.08503,0.56058 -7.63907,0.69989 -2.51972,0.14076 -5.04744,0.13718 -7.56254,0.36991 -2.24037,0.21368 -4.48612,0.37615 -6.71684,0.67958 -2.16409,0.21748 -4.32409,0.47216 -6.48886,0.68382 -1.98647,0.18704 -3.95506,0.48142 -5.8915,0.97401 -1.83423,0.46602 -3.68759,0.89785 -5.46275,1.56006 -1.75795,0.65656 -3.52562,1.28484 -5.29657,1.90519 -1.83519,0.5875 -3.6806,1.14147 -5.49064,1.80554 -2.37372,0.95033 -4.68529,2.04491 -6.79351,3.50885 -1.4485104,0.99529 -2.8386704,2.07032 -4.2896004,3.06148 0,0 1.40427,-0.54945 1.40427,-0.54945 z"
       id="path909"
       style="fill:#ed0081;fill-opacity:0.831325;stroke-width:0.264583" />
    <path
       d="m 88.385136,96.178144 c -4.64075,8.391686 -9.327907,16.770646 -13.456783,25.431596 -2.668611,5.59782 -4.845677,10.41552 -6.570699,16.35606 -0.65936,2.27067 -1.027742,4.6159 -1.541613,6.92384 0.0227,1.88918 -0.353899,3.82597 0.06814,5.66755 1.080712,4.71565 5.461021,7.04598 10.017847,6.40549 4.982157,-0.70027 6.907316,-3.23911 10.959063,-6.33262 1.617173,-1.97768 3.384859,-3.8413 4.851519,-5.93304 6.287161,-8.96669 10.70467,-20.63321 12.32024,-31.45262 0.34256,-2.2941 0.38363,-4.62317 0.57545,-6.93475 -0.15616,-1.97382 -0.0812,-3.97971 -0.46847,-5.92146 -0.80009,-4.011791 -3.13147,-8.822183 -7.51349,-9.941987 -3.538735,-0.904306 -4.952846,0.476268 -8.088246,1.923978 -1.900838,1.723263 -4.01225,3.239551 -5.702514,5.169792 -1.675514,1.913398 -3.005857,4.111067 -4.327369,6.284097 -2.678991,4.4052 -5.698215,10.61637 -7.494651,15.43117 -2.439371,6.53798 -2.845898,9.38573 -4.332205,16.04989 -0.281186,4.89118 -0.931479,8.07694 0.455763,12.8047 0.853295,2.90806 2.958383,6.19065 5.183312,8.27118 2.592075,2.42386 4.004651,2.67417 7.148856,3.94276 1.155544,0.14003 2.312509,0.57141 3.466629,0.4201 1.189117,-0.15589 2.334014,-0.6756 3.349466,-1.31369 3.314822,-2.08296 4.907516,-3.85363 6.811849,-7.1211 0.802868,-1.37757 1.509242,-2.8184 2.082639,-4.30618 0.640265,-1.66128 1.031486,-3.40812 1.547227,-5.11217 0.288293,-2.13192 0.688502,-4.25168 0.864876,-6.39576 0.85276,-10.36653 -0.572696,-21.0503 -4.322064,-30.77173 -0.806966,-2.09231 -1.913782,-4.05627 -2.870674,-6.084402 -1.205645,-1.448683 -2.19932,-3.104023 -3.616933,-4.346051 -2.235282,-1.958422 -5.441569,-3.381883 -8.507624,-2.862932 -1.695969,0.287057 -3.317732,1.056468 -4.758701,1.995789 -5.633842,3.672526 -6.874494,6.006296 -10.990567,11.098206 -4.887139,7.10614 -8.846531,14.77811 -11.938791,22.82355 -1.645541,4.28138 -3.329596,9.42626 -4.095202,14.00306 -0.310078,1.85366 -0.320204,3.74517 -0.480306,5.61775 0.479282,1.49181 0.662361,3.11388 1.437844,4.47544 3.738449,6.56378 12.348914,6.07048 18.577033,4.48757 2.074643,-0.52729 4.049615,-1.389 6.074421,-2.0835 6.089491,-2.81194 11.94726,-6.33592 16.328429,-11.52055 1.361758,-1.61149 2.564138,-3.36152 3.655192,-5.16731 2.695615,-4.46148 3.474284,-7.09056 5.350412,-11.92405 2.580779,-7.68352 4.050069,-15.69774 4.538489,-23.78204 0.23935,-3.961755 0.15124,-5.450094 0.0967,-9.313511 -0.13143,-2.970617 -0.12441,-3.834998 -0.40321,-6.647913 -0.0652,-0.657786 -0.11927,-1.319117 -0.24819,-1.967434 -0.0327,-0.164361 -0.10388,-0.554442 -0.23176,-0.446137 -2.03107,1.720104 -1.51724,2.089097 -1.59937,4.585615 0.0305,9.778492 0.21756,19.556 0.43439,29.33194 0.17266,5.51104 0.26407,11.02851 0.5819,16.53418 0.0973,1.68458 0.18028,3.37179 0.36617,5.04892 0.44015,3.97113 0.8955,5.73063 1.69323,9.5671 0.90302,3.40278 1.76067,6.86878 3.15112,10.11787 0.12945,0.30248 1.26368,2.80417 1.94474,3.08053 0.36257,0.14712 0.75822,-0.19368 1.13734,-0.29052 0.79843,-0.69588 1.75977,-1.24038 2.39531,-2.08763 0.73951,-0.98586 1.84444,-5.05167 2.05661,-5.94519 1.25836,-5.29929 1.3295,-10.04759 1.49794,-15.46226 0.0644,-6.88036 -0.54466,-13.74404 -1.36758,-20.56789 -0.42935,-3.5603 -1.24422,-9.33122 -1.94763,-12.86226 -0.46328,-2.32562 -1.05412,-4.624 -1.58118,-6.935996 -1.65997,-6.495002 -3.27058,-13.024831 -5.50603,-19.35386 -0.83869,-2.374535 -2.50699,-6.717853 -3.96949,-8.952902 -0.6447,-0.985258 -1.544573,-1.77758 -2.31686,-2.666371 -0.836573,-0.417912 -1.593249,-1.067749 -2.509716,-1.253733 -0.833231,-0.169093 -1.758818,-0.105876 -2.540352,0.228891 -1.36965,0.586687 -2.734445,1.352772 -3.733297,2.458413 -1.069049,1.183341 -1.64919,2.740745 -2.284963,4.203261 -1.899586,4.369773 -2.298279,7.011424 -3.402248,11.667289 -1.054735,6.441106 -1.154869,12.9566 -0.184229,19.413368 0.943486,6.27613 3.004701,12.35637 4.823608,18.41262 2.341356,7.64704 4.765278,15.35938 5.344684,23.38696 0.123984,1.71776 0.202935,3.4466 0.09945,5.16571 -0.09665,1.6056 -0.465209,3.18319 -0.697815,4.77478 -1.054444,3.8325 -2.289394,7.40818 -5.541047,9.96976 -0.428773,0.33778 -0.993105,0.47595 -1.526079,0.59375 -3.009847,0.66529 -3.046982,0.41268 -6.066203,0.0801 -2.265256,-0.75705 -3.803623,-1.0417 -5.704837,-2.62064 -3.224858,-2.67822 -5.049713,-6.77404 -6.035389,-10.7462 -0.380095,-1.53174 -0.522682,-3.11281 -0.784022,-4.66922 7.94e-4,-1.6986 -0.122634,-3.40183 0.0026,-5.09581 0.394976,-5.3434 1.995559,-10.47535 4.289301,-15.29186 1.904262,-3.99866 3.221881,-5.83532 5.588114,-9.58203 6.224709,-9.1768 12.647488,-18.414124 16.670684,-28.824957 0.702897,-1.818886 1.222089,-3.703532 1.833133,-5.555297 1.046793,-4.532747 1.692855,-8.619014 0.39936,-13.17407 -0.557295,-1.962515 -1.488763,-3.881202 -2.949509,-5.342075 -0.615156,-0.615209 -1.410518,-1.018847 -2.115775,-1.52827 -1.025565,0.03572 -2.079995,-0.137078 -3.076697,0.107148 -1.19997,0.294031 -2.343004,0.837059 -3.398334,1.479449 -1.633199,0.994143 -3.20684,2.111862 -4.619038,3.400798 -2.144802,1.957597 -4.47263,5.488744 -5.756627,8.02417 -0.864454,1.706978 -1.487929,3.52566 -2.231895,5.288489 -0.598038,1.881814 -1.27666,3.739893 -1.794116,5.645441 -2.008455,7.396196 -3.116217,15.857294 -2.88118,23.527054 0.05059,1.65096 0.26008,3.29322 0.39012,4.93983 0.606573,4.445 2.031352,8.57081 4.410289,12.37981 1.557425,2.49365 3.852445,5.29152 5.828242,7.45169 1.085043,1.18629 2.251429,2.29554 3.377144,3.44331 4.791821,4.6569 10.024676,8.86199 14.578595,13.76246 0.06352,0.0849 0.127047,0.16984 0.190571,0.25476 0.164626,-0.52279 0.67205,-1.05005 0.493877,-1.56838 -0.250876,-0.72982 -1.064861,-1.1174 -1.60618,-1.66745 -0.766329,-0.77868 -1.548836,-1.54131 -2.316602,-2.31857 -0.937704,-0.9493 -1.866495,-1.90736 -2.799741,-2.86105 -1.06834,-1.08129 -2.13668,-2.16259 -3.20502,-3.24388 -6.435185,-6.7781 -12.891994,-13.55611 -18.957109,-20.67201 -1.234353,-1.44821 -2.425555,-2.93264 -3.638333,-4.39897 -4.344813,-5.66163 -8.038502,-11.84817 -10.052484,-18.738728 -1.128596,-3.861327 -1.019215,-4.551109 -1.383726,-8.406284 0.16079,-2.188493 0.06402,-4.194847 1.06612,-6.216978 0.357433,-0.721265 0.929664,-1.323768 1.496417,-1.895406 0.181446,-0.183012 0.450284,-0.270232 0.70262,-0.322591 2.406676,-0.499358 2.16917,-0.293015 4.63292,0.148694 0.861118,0.337335 1.752751,0.605295 2.583354,1.012012 4.358609,2.134259 8.337786,6.111756 11.3035,9.875999 1.007732,1.279065 1.898801,2.645876 2.848203,3.968814 4.772864,7.343768 8.380592,15.423548 10.885937,23.811608 0.495268,1.6582 0.894382,3.34362 1.341572,5.01542 1.272641,5.95509 2.169835,12.07126 1.325465,18.15494 -0.509855,3.67349 -0.892395,4.29755 -2.048663,7.75679 -1.699377,4.1693 -4.249232,7.87568 -7.456435,11.02424 -1.531485,1.50348 -2.413063,2.15116 -4.051001,3.46976 -2.278128,1.93687 -4.706609,3.87603 -6.223606,6.51259 -0.326839,0.56805 -0.677434,1.14505 -0.829569,1.78251 -0.179006,0.75005 -0.09789,1.53912 -0.14683,2.30869 0.501321,4.84389 2.552723,9.33647 5.332179,13.29585 0.587761,0.83728 1.249831,1.61985 1.874745,2.42978 2.229601,2.35778 5.034484,5.13135 8.618789,4.54194 2.236311,-0.36775 3.890589,-1.83915 5.726234,-3.03717 0.652566,-0.71234 1.390473,-1.35502 1.9577,-2.13701 2.847191,-3.92522 4.131741,-9.31334 4.524584,-14.06581 0.11572,-1.39992 0.07847,-2.80829 0.117713,-4.21244 -0.148048,-4.55718 -0.788239,-9.0735 -1.62577,-13.54911 -0.541472,-2.89353 -1.103548,-5.58379 -1.941536,-8.40867 -0.396105,-1.33528 -0.888018,-2.64024 -1.332026,-3.96036 -1.337207,-3.5934 -2.966958,-7.06923 -4.995561,-10.32588 -1.709134,-2.74379 -3.692358,-5.32155 -5.5343,-7.97604 -1.196912,-1.82762 -3.354345,-4.92281 -2.156629,-7.27287 0.564128,-1.10688 0.575254,-1.0198 1.290701,-1.06225 0.646758,-0.16803 1.281088,-0.39454 1.940279,-0.50407 3.115186,-0.51764 6.890568,-0.39606 9.402075,1.79294 0.718351,0.62611 1.227521,1.45786 1.841283,2.18678 0.486404,1.1342 1.082727,2.22733 1.459214,3.4026 0.816411,2.5486 1.499891,6.59782 1.478229,9.22433 -0.01773,2.15048 -0.275299,4.29606 -0.567877,6.42661 -0.636517,4.63508 -1.970948,10.18314 -2.977592,14.71912 -1.403803,6.5647 -3.038549,13.14829 -3.617336,19.85853 -0.180348,2.09088 -0.438086,4.76937 0.587521,6.79814 0.25287,0.50021 0.797552,0.78774 1.196329,1.18161 0.624263,-0.13048 1.303189,-0.10459 1.87279,-0.39144 1.199298,-0.60398 2.385832,-1.30304 3.349238,-2.23843 2.039581,-1.98026 3.390241,-5.79005 4.184301,-8.24166 1.72777,-5.3344 2.15669,-8.61833 3.21648,-14.19857 1.35278,-8.28366 1.97066,-16.65873 2.28373,-25.03883 0.20325,-5.44048 0.30083,-10.50709 0.005,-15.94111 -0.12823,-2.35362 -0.41415,-4.69598 -0.62123,-7.04397 -0.46675,-2.06853 -0.76663,-4.18194 -1.40027,-6.20561 -1.50347,-4.80172 -4.16701,-9.506757 -8.56994,-12.211407 -3.389497,-2.082115 -4.702077,-1.803106 -8.544221,-2.244648 -1.610699,0.217458 -3.261752,0.23327 -4.832099,0.652375 -4.473067,1.193805 -8.480604,3.645342 -12.18792,6.333551 -3.600182,2.610529 -7.926022,6.836469 -10.691066,10.282899 -1.681056,2.09532 -3.077421,4.40394 -4.616132,6.60591 -3.907364,6.63964 -7.08837,13.73712 -8.394737,21.38268 -0.376156,2.20146 -0.657069,4.44146 -0.592008,6.67387 0.16224,5.56686 1.187159,6.74853 3.278047,11.67842 2.549126,3.64439 3.279339,5.40551 7.021637,7.95545 4.507743,3.07149 11.061742,4.59605 16.434384,3.37929 2.0725,-0.46936 3.941086,-1.59062 5.911628,-2.38593 2.260717,-1.62271 4.686922,-3.03673 6.782149,-4.86814 1.862606,-1.62807 3.475588,-3.53243 5.030161,-5.4568 3.419337,-4.23274 5.803781,-8.27642 8.131327,-13.19472 2.8465,-6.01491 3.30611,-8.21887 5.28022,-14.49964 1.95582,-7.78439 3.64323,-15.79146 2.75443,-23.86123 -0.43361,-3.936931 -0.92346,-4.897742 -2.0781,-8.571751 -0.5531,-1.158044 -1.00153,-2.372172 -1.65931,-3.474133 -2.24749,-3.765179 -6.132333,-7.235909 -10.738623,-7.439567 -1.244608,-0.05503 -2.477977,0.260625 -3.716965,0.39094 -1.33165,0.462937 -2.713503,0.801024 -3.994949,1.388814 -1.416037,0.649526 -2.766004,1.446522 -4.064151,2.307839 -3.51083,2.329421 -6.141172,4.308173 -8.767217,7.55474 -3.111521,3.846764 -3.464502,5.270339 -5.570416,9.704978 -0.495784,1.72373 -1.25114,3.39321 -1.48735,5.17121 -0.63373,4.77018 0.820225,9.90398 3.666355,13.7495 1.963275,2.65266 3.438811,3.40935 6.03122,5.25051 1.034259,0.46458 2.024062,1.04459 3.102782,1.39372 2.700184,0.87393 5.669478,0.8798 8.30781,-0.20361 2.039507,-0.8375 3.549047,-2.29805 5.264878,-3.65126 2.531094,-2.95554 4.124063,-6.53013 4.818356,-10.34778 0.105968,-0.58267 0.162542,-1.17326 0.243811,-1.75988 0.02663,-0.492 0.06678,-0.98346 0.07988,-1.47601 0.0074,-0.27805 0.04341,-1.29165 -0.114721,-1.69066 -0.211511,-0.53367 -1.574959,0.92835 -1.615514,0.97601 -0.134469,0.15804 -0.01082,0.41487 -0.01622,0.6223 0.126571,1.929 1.512525,1.69155 2.856632,0.90534 0.868232,-0.50785 1.703392,-1.07025 2.555082,-1.60538 2.73226,-2.2629 5.0125,-4.6246 6.39158,-7.92911 0.30453,-1.05344 0.55952,-1.64259 1.23147,-2.47684 0,0 -1.38492,0.59233 -1.38492,0.59233 v 0 c -0.59845,0.76524 -0.94298,1.57053 -1.20839,2.5112 -1.38798,3.24841 -3.69889,5.64314 -6.41982,7.84757 0.0158,0.49778 -2.203872,1.42836 -2.609839,0.12132 -0.06396,-0.20592 -0.04537,-0.42886 -0.06806,-0.64329 0.06704,-0.98606 0.224546,-0.65394 -1.135703,-0.19327 -0.03077,0.0104 0.08399,-0.052 0.09505,-0.0215 0.06386,0.17625 0.08557,0.36676 0.09783,0.55382 0.024,0.36625 0.0209,0.73415 0.01066,1.10105 -0.01363,0.4883 -0.0548,0.97544 -0.08219,1.46317 -0.08238,0.5827 -0.140124,1.16943 -0.247121,1.74812 -0.701913,3.79631 -2.303211,7.34452 -4.84855,10.26277 -0.883923,1.43628 -0.567032,1.26627 -2.721446,2.1859 -2.610173,1.11418 -5.561529,1.14471 -8.25558,0.29387 -1.074346,-0.33931 -2.060834,-0.91123 -3.091251,-1.36685 -2.580222,-1.81703 -4.051694,-2.56267 -6.004864,-5.19158 -2.834593,-3.81527 -4.266571,-8.90548 -3.622355,-13.64172 0.240845,-1.77069 0.996328,-3.43231 1.494491,-5.14846 0.808762,-1.68951 1.487929,-3.44741 2.426287,-5.068528 2.197037,-3.795625 3.688046,-5.330312 6.784263,-8.320561 0.856229,-0.826921 1.705012,-1.677739 2.681862,-2.357951 3.388027,-2.359197 4.270489,-2.405848 8.013367,-3.736835 1.228161,-0.141935 2.448888,-0.468458 3.684489,-0.425804 4.576276,0.157972 8.43965,3.58921 10.67353,7.322124 0.65542,1.09524 1.10214,2.302565 1.6532,3.453849 1.15046,3.657262 1.6388,4.61409 2.07029,8.533796 0.88603,8.04872 -0.79798,16.0388 -2.74987,23.80234 -0.76002,2.41121 -1.41253,4.85899 -2.28006,7.23364 -3.572636,9.77918 -8.596494,18.62576 -16.204206,25.83933 -1.339416,1.27003 -2.885805,2.3022 -4.328708,3.4533 -1.959284,0.80695 -3.814178,1.94002 -5.877854,2.42086 -5.336928,1.2435 -11.8726,-0.24691 -16.364595,-3.29028 -3.72723,-2.52523 -4.45639,-4.27778 -6.996276,-7.89672 -2.082959,-4.90825 -3.097813,-6.06692 -3.25364,-11.61174 -0.06253,-2.22496 0.218517,-4.45722 0.595464,-6.65091 1.311171,-7.63054 4.495061,-14.71084 8.407585,-21.33131 1.542978,-2.19679 2.944111,-4.50038 4.628938,-6.59036 3.098205,-3.84323 6.793934,-7.2695 10.71536,-10.25315 3.100581,-2.359099 5.887559,-3.90703 9.690759,-4.945171 1.561184,-0.426148 3.2048,-0.452612 4.807199,-0.678918 3.813037,0.411557 5.126579,0.124984 8.498017,2.173769 4.390087,2.66781 7.043517,7.34859 8.540997,12.11845 0.6331,2.01658 0.93266,4.12308 1.39899,6.18462 0.2082,2.34397 0.49566,4.68226 0.6246,7.03193 0.29478,5.37164 0.20202,10.55144 2.3e-4,15.92669 -0.31444,8.37647 -0.94365,16.74793 -2.30283,25.02659 -1.06438,5.54676 -1.5065,8.88587 -3.25226,14.1852 -1.4275,4.33326 -1.75308,4.9462 -4.249598,8.18069 -0.227314,0.29451 -0.457711,0.62076 -0.789665,0.78873 -0.552484,0.27956 -1.190008,0.34271 -1.785014,0.51407 -0.388922,-0.36895 -0.9218,-0.63001 -1.166762,-1.10685 -1.024409,-1.99411 -0.767607,-4.67934 -0.594021,-6.72933 0.567586,-6.70313 2.197094,-13.27991 3.600082,-19.83626 1.012788,-4.55963 2.343869,-10.08493 2.983674,-14.74278 0.294114,-2.14117 0.554114,-4.29734 0.572044,-6.45854 0.0219,-2.63376 -0.669053,-6.7154 -1.486338,-9.27114 -0.38037,-1.18946 -0.981369,-2.29673 -1.472054,-3.44509 -0.621136,-0.74327 -1.13678,-1.58928 -1.863402,-2.2298 -2.529102,-2.22942 -6.304606,-2.38101 -9.464474,-1.89311 -0.663562,0.10245 -1.304214,0.31979 -1.956321,0.47969 -1.285857,0.67738 -3.106611,1.14371 -3.801589,2.64058 -1.129845,2.4335 0.988237,5.48138 2.230162,7.37133 1.842389,2.64979 3.826147,5.22171 5.535014,7.96151 2.025314,3.24715 3.654245,6.71227 4.987182,10.29701 0.442822,1.31682 0.933675,2.61845 1.328465,3.95045 0.828931,2.79677 1.401789,5.53237 1.93785,8.39688 0.835994,4.46725 1.473536,8.97563 1.609265,13.52496 -0.04219,1.39956 -0.0079,2.80353 -0.126561,4.19868 -0.402918,4.7357 -1.698125,10.10308 -4.574418,13.99057 -0.572524,0.77381 -1.315016,1.40605 -1.972524,2.10907 -0.293344,0.26031 -0.531477,0.60114 -0.880028,0.78093 -1.456434,0.75123 -2.875135,1.17212 -4.523648,0.84271 -2.526307,-0.5048 -4.617164,-2.66081 -6.297321,-4.4252 -0.622742,-0.80605 -1.282885,-1.58454 -1.868223,-2.41815 -2.762041,-3.93355 -4.80687,-8.40032 -5.278818,-13.21757 0.05807,-0.7536 -0.0105,-1.52789 0.174194,-2.26081 0.158744,-0.62995 0.510108,-1.19884 0.838816,-1.75919 1.534369,-2.61566 3.961731,-4.54043 6.234475,-6.47171 1.634299,-1.32563 2.511753,-1.97467 4.038182,-3.48648 3.198836,-3.16818 5.733153,-6.89542 7.419829,-11.07759 1.146625,-3.47202 1.528247,-4.10285 2.029479,-7.7865 0.829881,-6.09898 -0.07536,-12.22707 -1.358175,-18.19403 -0.448935,-1.67398 -0.850162,-3.36149 -1.346804,-5.02194 -2.5127,-8.4009 -6.127652,-16.49335 -10.903233,-23.852358 -0.950221,-1.327751 -1.842108,-2.69925 -2.85066,-3.983249 -2.974946,-3.787437 -6.957216,-7.778224 -11.324034,-9.946145 -0.834782,-0.41443 -1.730846,-0.69183 -2.596267,-1.037746 -1.568039,-0.302575 -3.086174,-0.841172 -4.691975,-0.231889 -1.973551,0.748816 -3.757504,1.833779 -4.688821,3.78316 -0.983832,2.059297 -0.877668,4.03927 -1.029026,6.260449 0.37814,3.867748 0.271825,4.559811 1.410833,8.432001 2.03047,6.902827 5.729451,13.103567 10.085519,18.778467 1.214729,1.46672 2.408714,2.95088 3.644186,4.40018 6.066703,7.11667 12.516162,13.90306 18.945825,20.68888 1.066284,1.08225 2.132566,2.16451 3.19885,3.24676 0.930981,0.95564 1.857936,1.91521 2.792944,2.86691 0.764363,0.77801 1.543659,1.5413 2.305106,2.32215 0.538845,0.55259 0.894461,1.3552 1.595551,1.67796 3.459379,1.59254 2.309789,0.30059 1.870051,-0.24619 -4.593717,-4.86879 -9.808506,-9.09513 -14.615826,-13.74379 -1.123826,-1.14495 -2.28835,-2.25132 -3.371477,-3.43484 -1.969223,-2.15175 -4.258289,-4.94127 -5.80925,-7.42684 -2.365851,-3.7915 -3.781293,-7.90154 -4.386559,-12.32422 -0.130027,-1.64164 -0.33945,-3.27893 -0.390075,-4.92493 -0.235625,-7.66072 0.877059,-16.102416 2.895399,-23.486497 0.51989,-1.902021 1.201182,-3.756197 1.801773,-5.634297 0.749098,-1.757363 1.377645,-3.57115 2.247296,-5.272085 1.724009,-3.371942 3.228592,-5.257964 5.78585,-7.981048 1.708732,-1.819531 2.921246,-2.782527 5.473634,-3.464544 0.973175,-0.260037 2.010831,-0.123769 3.016245,-0.185652 0.698243,0.49595 1.48595,0.885444 2.094727,1.487857 1.450269,1.435103 2.37689,3.340759 2.926916,5.277448 1.285071,4.524857 0.63024,8.597334 -0.410302,13.097875 -0.610418,1.846469 -1.129187,3.725802 -1.83125,5.539407 -4.029401,10.408926 -10.467965,19.631436 -16.689689,28.810036 -2.366391,3.75858 -3.680143,5.59306 -5.580571,9.60521 -2.290114,4.83486 -3.880747,9.98623 -4.267462,15.34485 -0.12283,1.70201 0.0031,3.41288 0.0047,5.11932 0.264319,1.56342 0.409935,3.15161 0.792954,4.69026 0.996543,4.00328 2.837251,8.13138 6.074796,10.84383 1.905484,1.59643 3.463878,1.89778 5.738157,2.67338 2.124797,0.25251 3.993226,0.7207 6.116245,-0.0141 4.170268,-1.44334 6.526726,-3.91944 8.209077,-7.9146 0.57046,-1.3547 0.876569,-2.80609 1.314854,-4.20914 0.227828,-1.59805 0.590865,-3.1826 0.683488,-4.79415 0.09903,-1.72307 0.01688,-3.45536 -0.110437,-5.17657 -0.594135,-8.03288 -3.020756,-15.74963 -5.367944,-23.40218 -1.814552,-6.04782 -3.864565,-12.12422 -4.805822,-18.39111 -0.967762,-6.443341 -0.86472,-12.944656 0.204697,-19.369874 1.096759,-4.580903 1.526821,-7.347577 3.435557,-11.639619 0.644794,-1.449903 1.441934,-2.836235 2.330132,-4.15118 0.291566,-0.431652 0.682421,-0.855768 1.172014,-1.033626 2.427055,-0.881693 2.819249,-0.142293 4.981363,0.900956 0.769464,0.876581 1.666648,1.655765 2.308396,2.629741 1.46601,2.22495 3.13698,6.556153 3.97626,8.922372 2.2422,6.321541 3.85567,12.845923 5.51027,19.3372 0.52341,2.31086 1.10906,4.6085 1.57023,6.93259 0.69315,3.49314 1.525,9.33011 1.9502,12.85122 0.82352,6.81959 1.42056,13.67995 1.3475,20.5559 -0.0668,2.01222 -0.0734,4.02732 -0.20028,6.03664 -0.2295,3.63437 -0.50547,5.95405 -1.34105,9.40623 -2.57409,10.63483 0.49744,-2.60981 -2.10163,5.89838 -0.0591,0.19353 0.10635,0.39048 0.15953,0.58572 -0.34659,0.14657 -0.68302,0.55945 -1.03978,0.43972 -0.66448,-0.22299 -1.83565,-2.79898 -1.93405,-3.02716 -1.39626,-3.23744 -2.25542,-6.69492 -3.15888,-10.0886 -0.81081,-3.88584 -1.24334,-5.5196 -1.68899,-9.54753 -0.18537,-1.67536 -0.27017,-3.3606 -0.36795,-5.04334 -0.3199,-5.50514 -0.41233,-11.02218 -0.57734,-16.533 -0.22097,-9.77754 -0.4139,-19.557272 -0.40386,-29.337661 0.074,-1.774102 0.94363,-2.90059 -1.02774,-3.169253 -0.14776,-0.02014 0.19144,0.242758 0.22116,0.388893 0.13103,0.644316 0.18886,1.301771 0.25567,1.955871 0.28296,2.770143 0.2802,3.711533 0.41382,6.631305 0.0574,3.858043 0.14698,5.33763 -0.0911,9.294375 -0.48576,8.07155 -1.957928,16.07139 -4.544505,23.7394 -1.883214,4.82787 -2.658975,7.442 -5.367422,11.89297 -2.486565,4.08634 -4.425821,6.26675 -7.995854,9.3956 -1.207939,1.05866 -2.471269,2.07074 -3.841165,2.90935 -1.821852,1.11527 -3.799274,1.95383 -5.698908,2.93075 -2.019099,0.70014 -3.988171,1.56593 -6.057294,2.10043 -6.121035,1.58117 -14.746417,2.14906 -18.450229,-4.32424 -0.768472,-1.34309 -0.947656,-2.94612 -1.421482,-4.41919 0.159065,-1.86422 0.168762,-3.74726 0.4772,-5.59265 0.763833,-4.57007 2.440855,-9.69773 4.086164,-13.97225 3.094339,-8.03912 7.059763,-15.70306 11.963976,-22.7915 1.2806,-1.57315 6.207128,-8.046677 8.548709,-9.643339 4.498009,-3.067074 9.046861,-2.862509 13.166137,0.711718 1.415056,1.227818 2.406595,2.871933 3.609891,4.307901 0.957384,2.02044 2.065512,3.97612 2.87215,6.06134 3.752852,9.70138 5.158972,20.37686 4.279008,30.72318 -0.181986,2.13972 -0.591373,4.25397 -0.887058,6.38096 -0.520983,1.69812 -0.917527,3.43954 -1.562947,5.09438 -1.301866,3.33794 -2.523889,5.1173 -4.671271,7.91634 -1.476158,1.92411 -2.346071,2.97904 -5.049994,3.37398 -1.144587,0.16718 -2.299157,-0.25687 -3.448738,-0.3853 -3.128962,-1.24069 -4.535291,-1.47934 -7.117082,-3.87656 -2.216595,-2.05813 -4.309182,-5.30674 -5.158311,-8.19459 -1.384277,-4.70785 -0.735042,-7.87491 -0.454269,-12.74714 1.490403,-6.68259 1.879687,-9.46499 4.335063,-16.02138 1.017976,-2.71822 2.210583,-5.37202 3.483152,-7.98077 3.073117,-6.29985 6.769989,-12.320152 11.624776,-17.411696 3.067981,-1.465419 4.500094,-2.874322 7.999314,-2.028113 4.359439,1.054232 6.671419,5.842114 7.463539,9.803589 0.38651,1.933 0.31267,3.9301 0.469,5.89514 -0.19085,2.30462 -0.2309,4.62672 -0.57256,6.91384 -1.61406,10.805 -6.04161,22.45756 -12.351309,31.39176 -1.473676,2.08664 -3.25094,3.94139 -4.876408,5.91209 -1.253321,1.1118 -2.314467,2.48837 -3.759962,3.33539 -3.670811,2.15098 -9.281377,2.71845 -12.482393,-0.6999 -2.986527,-3.18931 -2.137855,-5.41379 -2.188311,-9.52995 0.511625,-2.30073 0.877774,-4.63871 1.534874,-6.90219 1.717768,-5.91709 3.902536,-10.75742 6.560635,-16.33154 4.135086,-8.67143 8.827442,-17.06245 13.509191,-25.445197 0,0 -1.31981,0.586724 -1.31981,0.586724 z"
       id="path911"
       style="fill:#ed0081;fill-opacity:0.831325;stroke-width:0.264583" />
    <path
       d="m 123.16237,91.121298 c -1.76313,2.232223 -2.74261,4.88624 -3.56821,7.582921 -0.92584,3.024111 -1.69107,6.329831 -2.07625,9.471971 -0.1724,1.4064 -0.1793,2.82819 -0.26896,4.24228 0.12217,1.07872 0.086,2.18741 0.3665,3.23617 0.21226,0.79359 1.08893,2.89841 2.55585,2.3112 1.2087,-0.48385 2.27839,-1.33596 3.16367,-2.2906 0.81913,-0.88331 1.37771,-1.99751 1.84322,-3.10859 0.57709,-1.37739 0.84029,-2.86615 1.26043,-4.29922 0.12343,-1.41593 0.5416,-2.83685 0.37029,-4.24779 -0.22446,-1.84874 -1.3929,-3.946 -3.73326,-3.10141 -6.40529,2.31154 -8.97148,9.2835 -11.77133,14.76778 -1.64254,4.28036 -3.40878,8.16994 -4.18009,12.71434 -0.21529,1.26846 -0.38781,2.60992 -0.0793,3.859 0.14684,0.59458 0.73792,1.35414 1.34223,1.25467 3.23123,-0.53183 5.21425,-3.7261 7.07762,-5.89073 3.88215,-5.97145 7.19132,-12.40032 9.09676,-19.29809 0.65696,-2.37825 1.8078,-7.14441 0.6113,-9.854005 -0.36633,-0.82958 -1.39372,-1.160664 -2.09058,-1.740995 -1.14405,0.363212 -2.57827,0.246025 -3.43213,1.089638 -4.84291,4.784792 -7.44095,11.474152 -9.65186,17.691372 -2.22622,6.26024 -4.15547,13.5925 -5.05291,20.21883 -0.34157,2.52204 -0.30742,5.08085 -0.46113,7.62127 0.2498,1.29153 0.21546,6.35263 3.06816,6.75766 1.15601,0.16413 2.31985,-0.52307 3.31328,-1.13658 3.54516,-2.18936 6.58998,-5.31641 8.9931,-8.68917 1.42058,-1.99377 2.56198,-4.17239 3.84296,-6.25858 3.11116,-5.89379 5.78771,-12.09143 6.89395,-18.70795 0.35741,-2.13767 0.58202,-4.92121 -0.0631,-7.10759 -0.14692,-0.49796 -0.55073,-0.88028 -0.82609,-1.32042 -0.29451,0.0337 -0.65473,-0.0875 -0.88353,0.10101 -0.697,0.57418 -1.40296,1.23447 -1.74978,2.06827 -0.37527,0.90223 0.39222,3.10943 0.86276,3.7914 0.3644,0.52812 0.83945,1.03161 1.42489,1.29423 0.59841,0.26844 1.30336,0.14797 1.95503,0.22196 1.21778,-0.93599 2.61319,-1.67785 3.65332,-2.80797 1.6795,-1.82481 3.15861,-5.55236 3.78417,-7.83605 0.72014,-2.62895 1.18455,-6.08319 0.75466,-8.823263 -0.21498,-1.370301 -0.82173,-2.64963 -1.2326,-3.974446 -1.08266,-2.024716 -3.11183,-6.129375 -5.98732,-6.250345 -0.71161,-0.02994 -1.44316,0.266562 -2.02791,0.673214 -3.30959,2.301615 -3.13799,2.933753 -4.8207,6.28115 -2.04377,6.342983 -3.14564,13.02035 -2.04852,19.65968 0.53333,3.22749 0.91391,3.68552 2.1279,6.53142 1.41189,2.53507 3.05948,4.41905 3.84809,7.27778 1.05392,3.82047 0.77016,7.75576 0.61285,11.65682 -0.39107,5.09927 -0.96721,10.18293 -1.22895,15.29209 -0.0726,1.41761 -0.28533,5.83866 0.0158,7.51573 0.11298,0.62929 0.49609,1.17856 0.74414,1.76783 0.41732,0.0595 0.87802,0.37306 1.25196,0.17847 2.61673,-1.36167 3.42377,-2.97091 4.58594,-5.54445 0.68703,-1.5214 1.36449,-3.06042 1.81241,-4.66854 1.44695,-5.19476 1.63602,-9.09933 2.22351,-14.47977 0.15666,-6.20411 0.44681,-8.24646 -0.28208,-14.28427 -0.22735,-1.88325 -0.52353,-3.76768 -1.01857,-5.59887 -0.5744,-2.1248 -1.63233,-5.19383 -3.72441,-6.52381 -0.65352,-0.41544 -1.5208,-0.29304 -2.28119,-0.43956 -1.13725,0.75367 -2.48788,1.2571 -3.41176,2.261 -1.50452,1.63484 -2.84867,6.38411 -3.28317,8.19494 -1.45509,6.06429 -1.93722,12.34039 -2.51723,18.52881 -0.52454,5.83437 -0.60353,11.70794 -1.20633,17.53616 -0.23616,2.28327 -0.62627,5.48203 -1.48575,7.71112 -0.31889,0.82705 -0.86585,1.54698 -1.29878,2.32048 -0.6318,0.35066 -1.18453,0.92241 -1.89541,1.05198 -0.32928,0.06 -0.55758,-0.37044 -0.83752,-0.5539 -0.93005,-0.60952 -1.9645,-1.08273 -2.79244,-1.82504 -4.0944,-3.67089 -6.47125,-8.82821 -8.95872,-13.59757 -2.69553,-5.72983 -4.503952,-11.79701 -5.850705,-17.96906 -1.081461,-4.95624 -1.77124,-9.99439 -2.636941,-14.99047 -0.2975,-1.28415 -0.762799,-3.77091 -1.404609,-5.1169 -0.142402,-0.29864 -0.311999,-0.83701 -0.634529,-0.76325 -0.700199,0.16012 -1.557822,0.60088 -1.717633,1.30115 -0.317846,1.39277 2.668897,5.81818 2.949377,6.29457 2.638927,4.16728 6.30883,7.34396 10.22143,10.26109 1.26043,0.93974 2.60991,1.75728 3.85755,2.71393 3.74536,2.87183 3.75885,3.12614 6.97126,6.44954 2.26789,3.0186 2.67098,3.26456 4.3217,6.5149 0.48452,0.95404 0.87167,1.95456 1.29242,2.93838 0.6269,1.46584 1.27638,3.2873 2.10565,4.68055 0.32889,0.55257 0.76064,1.03705 1.14095,1.55558 0.58355,0.17605 1.14155,0.50523 1.75065,0.52814 1.39575,0.0525 2.78517,-0.70736 3.90166,-1.41655 2.66097,-1.6902 3.44923,-2.33885 5.16054,-4.68348 1.22871,-1.90776 2.45216,-3.83812 3.39062,-5.9102 0.27828,-0.61443 0.51739,-1.24587 0.77608,-1.8688 0.81523,-2.78118 1.54076,-6.20299 0.53655,-9.04837 -0.0867,-0.24553 -0.25484,-0.45414 -0.38226,-0.68121 -2.13883,0.44884 -2.36042,2.73398 -1.2413,4.15356 0.20068,0.25456 0.44276,0.54038 0.76008,0.60657 0.34708,0.0724 0.69212,-0.15431 1.03817,-0.23147 0.77897,-0.53533 1.62972,-0.9789 2.33692,-1.60601 0.41541,-0.36837 0.71428,-0.85807 0.98716,-1.34161 0.95669,-1.6952 1.39974,-3.73483 1.16458,-5.67598 -0.0598,-0.49379 -0.25823,-0.9607 -0.38734,-1.44105 -0.397,-1.28286 -1.7633,-1.86099 -2.33085,-3.0157 -0.34328,-0.69841 -0.28184,-0.93974 -0.33497,-1.71034 -0.003,-1.07038 0.4924,-2.36402 -0.0624,-3.37631 -0.1717,-0.31329 -0.79256,-0.88087 -1.02224,-1.10587 -1.73947,-1.87556 -1.3914,-3.4926 -1.51085,-5.88145 -0.0447,-0.89428 -0.14327,-1.78506 -0.2149,-2.67759 -0.41327,-2.6235 -0.41289,-3.27784 -1.22437,-5.81343 -0.27033,-0.84468 -0.54401,-1.69708 -0.95236,-2.48437 -0.19471,-0.37541 -1.23109,-2.374768 -2.30589,-1.620533 -0.97443,0.683799 -1.60789,1.755873 -2.41184,2.633803 -0.33438,1.30727 -0.7455,2.59728 -1.00313,3.92181 -0.35622,1.83141 -0.59353,3.68449 -0.83617,5.53437 -0.88393,6.73912 -1.26973,13.57198 -2.87376,20.2001 -0.29463,1.21743 -0.76255,2.38627 -1.14382,3.5794 -0.32668,0.34147 -0.85884,1.48117 -0.98002,1.02441 -0.1814,-0.68377 0.64623,-1.29224 0.72238,-1.99556 0.11979,-1.10655 -0.15709,-2.22295 -0.14518,-3.3359 0.0176,-1.64077 0.12426,-3.27981 0.23352,-4.91703 0.24511,-3.67305 0.74728,-8.60174 1.09687,-12.23793 0.44517,-5.11766 0.81203,-7.03761 0.50102,-12.0967 -0.23631,-3.843817 -0.86261,-7.940035 -3.77385,-10.759589 -0.57312,-0.555077 -1.32904,-0.88316 -1.99356,-1.324739 -1.77343,-0.498322 -3.43148,-0.746593 -5.00388,0.452366 -0.71886,0.548132 -1.51601,1.072989 -1.98941,1.843119 -0.50515,0.821799 0.3269,2.671853 0.52911,3.29366 2.32291,4.709335 5.83863,8.689863 8.37219,13.269213 0.0926,0.28145 0.24764,0.54959 0.27793,0.84434 0.0161,0.15683 -0.0355,0.33671 -0.14493,0.45022 -0.20249,0.21006 -0.49629,0.30709 -0.73987,0.4677 -0.38895,0.25647 -0.78735,0.50047 -1.1575,0.78341 -0.47381,0.36217 -0.97465,0.70386 -1.3711,1.1494 -0.54924,0.61726 -0.96282,1.34303 -1.44422,2.01454 -1.17256,2.16154 -2.42141,4.48549 -2.58134,7.00448 -0.0439,0.69075 0.0845,1.70028 0.76513,2.13539 0.22728,0.1453 0.53114,0.0946 0.79672,0.14195 0.28042,-0.0659 0.56084,-0.13189 0.84126,-0.19783 0,0 1.19125,-0.91406 1.19125,-0.91406 v 0 c -0.2688,0.0811 -0.5376,0.16229 -0.8064,0.24344 -0.24475,-0.0145 -0.51968,0.0752 -0.73426,-0.0434 -0.66571,-0.36799 -0.75971,-1.41184 -0.71736,-2.01403 0.17601,-2.50262 1.41964,-4.80502 2.605,-6.94432 0.4887,-0.66124 0.91202,-1.37622 1.46612,-1.98372 0.72947,-0.79977 1.68268,-1.30148 2.54274,-1.92698 0.24312,-0.17681 0.52373,-0.32412 0.70199,-0.56619 0.30194,-0.41003 -0.0853,-1.06431 -0.19735,-1.38867 -2.55476,-4.55559 -6.05545,-8.533511 -8.36082,-13.241811 -0.18584,-0.586737 -0.37169,-1.173477 -0.55753,-1.760214 0.0314,-0.471927 0.21396,-0.958242 0.0941,-1.415781 -0.0529,-0.201848 -0.66714,-0.137773 -0.5454,-0.307226 0.49947,-0.695179 2.26751,-0.993674 2.95868,-0.968735 0.66533,0.024 1.30715,0.253551 1.96073,0.380326 0.65785,0.426384 1.40617,0.73819 1.97357,1.279149 2.90669,2.771251 3.52337,6.859204 3.75848,10.659972 0.31137,5.03377 -0.0585,6.98721 -0.50184,12.08037 -0.34178,3.53723 -0.86447,8.67234 -1.10913,12.25175 -0.11237,1.64408 -0.22611,3.28989 -0.24432,4.93771 -0.0125,1.13354 -0.36834,2.39039 0.15218,3.39744 1.16907,2.26176 2.34813,0.22975 2.88437,-0.38941 0.37099,-1.19439 0.82505,-2.36608 1.11297,-3.58317 1.57005,-6.63686 1.96764,-13.4677 2.87477,-20.20669 0.24882,-1.8485 0.49103,-3.70071 0.85979,-5.52906 0.26561,-1.31693 0.69378,-2.59578 1.04067,-3.89367 -0.0528,-0.37861 -0.70418,-2.255986 0.95934,-1.16243 0.513,0.33724 0.82406,0.92686 1.10809,1.47112 0.40781,0.78144 0.67957,1.62901 0.94795,2.46862 0.80616,2.52195 0.80394,3.18046 1.20889,5.79141 0.0674,0.89086 0.15965,1.7802 0.20232,2.67259 0.11628,2.43185 -0.20226,4.08088 1.55634,5.99099 0.16968,0.16531 0.84319,0.78641 0.98441,1.04369 0.51906,0.94564 0.0221,2.33256 0.0483,3.34366 0.0683,0.80488 0.0104,1.04978 0.37117,1.77882 0.56612,1.14393 1.89677,1.71167 2.31342,2.96848 0.12438,0.46831 0.31738,0.9236 0.37315,1.40491 0.22243,1.91961 -0.23416,3.92956 -1.20737,5.58963 -0.27831,0.47475 -0.74574,0.82461 -1.00401,1.31055 -0.0425,0.0799 0.15833,0.0878 0.23749,0.13167 -0.31877,0.11555 -0.61968,0.38716 -0.95633,0.34666 -0.57856,-0.0696 -1.11724,-1.11627 -1.22716,-1.52165 -0.10677,-0.39379 0.16696,-0.90804 -0.0957,-1.22029 -0.63572,-0.75586 -1.56005,0.30519 -0.76733,-0.468 0.12236,0.21379 0.28508,0.40908 0.36709,0.64136 0.9945,2.81649 0.25299,6.21505 -0.57033,8.96019 -0.26102,0.6203 -0.50257,1.24916 -0.78307,1.8609 -0.94603,2.06322 -2.17066,3.9883 -3.4034,5.88786 -1.90377,2.55591 0.17667,-0.12342 -2.22878,2.57805 -0.15702,0.17635 -0.21208,0.44464 -0.40446,0.58154 -0.99862,0.71066 -2.53854,1.50566 -3.82918,1.50603 -0.58537,1.7e-4 -1.13265,-0.29622 -1.69898,-0.44433 -0.3775,-0.51012 -0.80651,-0.98587 -1.13249,-1.53035 -0.82572,-1.37915 -1.48811,-3.22052 -2.11156,-4.66973 -0.42479,-0.9874 -0.81611,-1.99154 -1.30473,-2.94897 -1.66342,-3.25939 -2.07183,-3.5127 -4.35037,-6.54018 -3.19121,-3.30179 -3.26893,-3.6209 -6.98673,-6.47245 -1.24581,-0.95553 -2.59539,-1.76915 -3.85523,-2.70611 -3.90241,-2.90226 -7.561892,-6.06121 -10.185956,-10.21883 -0.701288,-1.2024 -1.522044,-2.34266 -2.103866,-3.6072 -0.371324,-0.80704 -0.237262,-1.82574 -0.73456,-2.56187 -0.176623,-0.26145 -0.822862,-0.21344 -0.943308,0.0782 -0.119634,0.28965 0.48165,0.4261 0.618601,0.70797 0.64725,1.33218 1.11778,3.81389 1.416214,5.08402 0.87789,4.99455 1.576176,10.03222 2.662404,14.98788 1.354923,6.18151 3.170021,12.2584 5.867391,17.99927 2.4981,4.80053 4.88179,9.95658 8.96767,13.67783 0.84298,0.76775 1.71076,1.72449 2.83514,1.91378 1.88209,0.31684 3.79394,-1.08673 5.27912,-1.98457 0.42483,-0.78314 0.96129,-1.51533 1.27449,-2.3494 0.84352,-2.24633 1.2218,-5.42683 1.45427,-7.72515 0.58933,-5.82641 0.67037,-11.69619 1.19534,-17.52769 0.44757,-4.73716 0.66423,-7.86508 1.41507,-12.55083 0.56296,-3.51325 1.24689,-7.37805 2.62077,-10.71218 0.48836,-1.18515 1.17118,-2.28442 1.85652,-3.36765 0.21235,-0.33564 0.54711,-0.57589 0.82066,-0.86384 0.74537,0.11732 1.59236,-0.0417 2.23612,0.35194 2.08704,1.27603 3.1473,4.36513 3.71154,6.43823 0.49649,1.82421 0.79459,3.70198 1.02279,5.57872 0.73325,6.03019 0.44036,8.05811 0.28077,14.25623 -0.60596,5.4523 -0.77875,9.20792 -2.26942,14.45994 -0.45565,1.60535 -1.13653,3.14231 -1.83492,4.65791 -0.5136,1.11459 -1.24643,2.11679 -1.79313,3.21553 -0.13242,0.26614 0.0218,0.71033 -0.23486,0.8603 -0.33763,0.19728 -0.78167,-0.0253 -1.17251,-0.038 -0.24461,-0.57136 -0.62302,-1.10253 -0.73382,-1.7141 -0.30483,-1.68246 -0.0989,-6.06614 -0.0269,-7.49108 0.25828,-5.11154 0.83804,-10.19707 1.23242,-15.29818 0.158,-3.92429 0.43911,-7.87673 -0.62364,-11.71908 -0.79293,-2.86683 -2.42863,-4.74462 -3.85342,-7.28068 -0.41081,-0.95907 -0.90819,-1.88552 -1.23242,-2.8772 -1.93806,-5.9276 -1.55528,-12.34664 -0.18803,-18.345434 0.3738,-1.640027 0.92817,-3.233599 1.39225,-4.850399 0.5727,-1.113904 1.17096,-2.215031 1.71809,-3.341714 0.22439,-0.46209 0.20402,-1.088403 0.59501,-1.421577 2.29271,-1.953668 4.76452,0.365691 6.07179,2.159873 0.72478,0.994735 1.2221,2.136751 1.83315,3.205128 0.40494,1.31223 1.00476,2.579566 1.2148,3.936695 0.65046,4.20274 -0.52749,9.272808 -2.38038,13.036998 -0.99215,2.01556 -2.02719,3.2602 -3.29993,4.90233 -0.63402,-0.0478 -1.31554,0.1022 -1.90205,-0.14327 -1.21147,-0.50706 -1.87832,-1.90322 -2.13353,-3.07383 -0.13205,-0.60573 0.14698,-1.27592 -0.0643,-1.85876 -0.10905,-0.30079 -0.79632,-0.20871 -0.80117,-0.52862 -0.004,-0.27664 0.52618,-0.17127 0.78926,-0.2569 0.26992,0.41918 0.66723,0.77979 0.80976,1.25755 0.64492,2.16187 0.42133,4.93212 0.0691,7.04376 -1.10147,6.60254 -3.77887,12.78291 -6.8947,18.65743 -4.08625,6.60139 -2.98191,5.51896 -7.81837,10.88386 -1.22301,1.35665 -3.46901,4.08468 -5.77487,3.8455 -2.82862,-0.29341 -2.82604,-5.45893 -3.05472,-6.6143 0.14848,-2.53091 0.10757,-5.08009 0.44544,-7.59274 0.88949,-6.61497 2.81871,-13.94557 5.05477,-20.18863 1.20731,-3.37079 2.68779,-6.63901 4.1475,-9.90842 0.95405,-2.13683 1.56884,-4.52579 3.09073,-6.303446 0.76931,-0.898589 2.22518,-0.803588 3.33777,-1.205379 0.68307,0.544801 1.69314,0.836526 2.04923,1.634403 1.19499,2.677642 0.0398,7.440492 -0.60791,9.778822 -1.90916,6.89267 -5.22556,13.31386 -9.14207,19.2587 -1.10053,1.25056 -2.13242,2.56504 -3.30159,3.75167 -0.3307,0.33564 -0.70589,0.85402 -1.17262,0.78936 -2.24235,-0.31065 -1.35576,-4.21968 -1.23258,-4.94739 0.77011,-4.54973 2.52855,-8.39542 4.1794,-12.68039 2.68073,-5.20802 3.3686,-7.3765 7.13863,-11.71022 0.58457,-0.67197 1.27185,-1.36667 2.12627,-1.61817 2.30832,-0.67949 3.38394,0.76857 3.63657,2.8983 0.16639,1.40265 -0.25377,2.81356 -0.38066,4.22033 -1.60191,5.3214 -0.53424,3.07947 -3.16021,7.34014 -0.1833,0.29741 -0.22681,0.78752 -0.56249,0.88437 -2.72301,0.78573 -2.75805,-4.21643 -2.84444,-5.35207 0.0898,-1.40817 0.0961,-2.82415 0.2693,-4.22451 0.3869,-3.12874 1.15947,-6.44592 2.09545,-9.453406 0.77561,-2.492166 1.37209,-4.092085 2.66469,-6.229053 0.28108,-0.464691 0.64506,-0.873885 0.96759,-1.310828 0,0 -1.38892,0.575305 -1.38892,0.575305 z"
       id="path913"
       style="fill:#ed0081;fill-opacity:0.831325;stroke-width:0.264583" />
  </g>
</svg>
